<svg xmlns="http://www.w3.org/2000/svg" xmlns:xlink="http://www.w3.org/1999/xlink" width="320" zoomAndPan="magnify" viewBox="0 0 240 98.999996" height="132" preserveAspectRatio="xMidYMid meet" version="1.0"><defs><g/><clipPath id="5fb6d0255e"><path d="M 1 10 L 52.320312 10 L 52.320312 58 L 1 58 Z M 1 10 " clip-rule="nonzero"/></clipPath><clipPath id="748868ebcf"><rect x="0" width="53" y="0" height="75"/></clipPath><clipPath id="92d465d199"><rect x="0" width="42" y="0" height="75"/></clipPath><clipPath id="9155a602d2"><path d="M 0.078125 7 L 5 7 L 5 11 L 0.078125 11 Z M 0.078125 7 " clip-rule="nonzero"/></clipPath><clipPath id="426f715e09"><rect x="0" width="54" y="0" height="13"/></clipPath><clipPath id="d99e25b0d6"><path d="M 0.71875 1 L 4 1 L 4 5 L 0.71875 5 Z M 0.71875 1 " clip-rule="nonzero"/></clipPath><clipPath id="ffe5520ea5"><path d="M 116 0.078125 L 119 0.078125 L 119 5 L 116 5 Z M 116 0.078125 " clip-rule="nonzero"/></clipPath><clipPath id="35e6b4b62d"><rect x="0" width="157" y="0" height="7"/></clipPath><clipPath id="b3db400066"><path d="M 0.398438 1 L 3 1 L 3 5 L 0.398438 5 Z M 0.398438 1 " clip-rule="nonzero"/></clipPath><clipPath id="66191d6e93"><rect x="0" width="117" y="0" height="6"/></clipPath></defs><rect x="-24" width="288" fill="#ffffff" y="-9.9" height="118.799995" fill-opacity="1"/><rect x="-24" width="288" fill="#ffffff" y="-9.9" height="118.799995" fill-opacity="1"/><g transform="matrix(1, 0, 0, 1, 96, -0.000000000000001489)"><g clip-path="url(#748868ebcf)"><g clip-path="url(#5fb6d0255e)"><g fill="#000000" fill-opacity="1"><g transform="translate(2.021935, 57.164558)"><g><path d="M 50.25 -46.53125 L 30.109375 0 L 19.46875 0 L -0.59375 -46.53125 L 11.03125 -46.53125 L 25.1875 -13.296875 L 39.546875 -46.53125 Z M 50.25 -46.53125 "/></g></g></g></g></g></g><g transform="matrix(1, 0, 0, 1, 81, -0.000000000000001489)"><g clip-path="url(#92d465d199)"><g fill="#000000" fill-opacity="1"><g transform="translate(0.958408, 57.164506)"><g><path d="M 5.515625 -46.53125 L 16.28125 -46.53125 L 16.28125 -8.78125 L 39.609375 -8.78125 L 39.609375 0 L 5.515625 0 Z M 5.515625 -46.53125 "/></g></g></g></g></g><g transform="matrix(1, 0, 0, 1, 88, 59)"><g clip-path="url(#426f715e09)"><g fill="#000000" fill-opacity="1"><g transform="translate(12.492003, 4.379878)"><g><path d="M 0.375 -3.15625 L 1.109375 -3.15625 L 1.109375 -0.59375 L 2.6875 -0.59375 L 2.6875 0 L 0.375 0 Z M 0.375 -3.15625 "/></g></g></g><g fill="#000000" fill-opacity="1"><g transform="translate(16.180244, 4.379878)"><g><path d="M 2.453125 -0.671875 L 0.984375 -0.671875 L 0.703125 0 L -0.046875 0 L 1.375 -3.15625 L 2.09375 -3.15625 L 3.5 0 L 2.734375 0 Z M 2.21875 -1.234375 L 1.71875 -2.4375 L 1.21875 -1.234375 Z M 2.21875 -1.234375 "/></g></g></g><g fill="#000000" fill-opacity="1"><g transform="translate(20.599815, 4.379878)"><g><path d="M 2.828125 -0.59375 L 2.828125 0 L 0.375 0 L 0.375 -3.15625 L 2.765625 -3.15625 L 2.765625 -2.578125 L 1.109375 -2.578125 L 1.109375 -1.890625 L 2.5625 -1.890625 L 2.5625 -1.3125 L 1.109375 -1.3125 L 1.109375 -0.59375 Z M 2.828125 -0.59375 "/></g></g></g><g fill="#000000" fill-opacity="1"><g transform="translate(24.590523, 4.379878)"><g><path d="M 1.03125 -2.5625 L 0.015625 -2.5625 L 0.015625 -3.15625 L 2.765625 -3.15625 L 2.765625 -2.5625 L 1.765625 -2.5625 L 1.765625 0 L 1.03125 0 Z M 1.03125 -2.5625 "/></g></g></g><g fill="#000000" fill-opacity="1"><g transform="translate(28.341964, 4.379878)"><g><path d="M 0.375 -3.15625 L 1.109375 -3.15625 L 1.109375 0 L 0.375 0 Z M 0.375 -3.15625 "/></g></g></g><g fill="#000000" fill-opacity="1"><g transform="translate(30.78424, 4.379878)"><g><path d="M 1.03125 -2.5625 L 0.015625 -2.5625 L 0.015625 -3.15625 L 2.765625 -3.15625 L 2.765625 -2.5625 L 1.765625 -2.5625 L 1.765625 0 L 1.03125 0 Z M 1.03125 -2.5625 "/></g></g></g><g fill="#000000" fill-opacity="1"><g transform="translate(34.535681, 4.379878)"><g><path d="M 0.375 -3.15625 L 1.109375 -3.15625 L 1.109375 0 L 0.375 0 Z M 0.375 -3.15625 "/></g></g></g><g fill="#000000" fill-opacity="1"><g transform="translate(36.977957, 4.379878)"><g><path d="M 2.453125 -0.671875 L 0.984375 -0.671875 L 0.703125 0 L -0.046875 0 L 1.375 -3.15625 L 2.09375 -3.15625 L 3.5 0 L 2.734375 0 Z M 2.21875 -1.234375 L 1.71875 -2.4375 L 1.21875 -1.234375 Z M 2.21875 -1.234375 "/></g></g></g><g clip-path="url(#9155a602d2)"><g fill="#000000" fill-opacity="1"><g transform="translate(0.829936, 10.39901)"><g><path d="M 3.40625 -3.15625 L 2.046875 0 L 1.328125 0 L -0.046875 -3.15625 L 0.75 -3.15625 L 1.71875 -0.90625 L 2.6875 -3.15625 Z M 3.40625 -3.15625 "/></g></g></g></g><g fill="#000000" fill-opacity="1"><g transform="translate(5.159218, 10.39901)"><g><path d="M 2.453125 -0.671875 L 0.984375 -0.671875 L 0.703125 0 L -0.046875 0 L 1.375 -3.15625 L 2.09375 -3.15625 L 3.5 0 L 2.734375 0 Z M 2.21875 -1.234375 L 1.71875 -2.4375 L 1.21875 -1.234375 Z M 2.21875 -1.234375 "/></g></g></g><g fill="#000000" fill-opacity="1"><g transform="translate(9.578788, 10.39901)"><g><path d="M 3.28125 -3.15625 L 3.28125 0 L 2.671875 0 L 1.09375 -1.921875 L 1.09375 0 L 0.375 0 L 0.375 -3.15625 L 0.984375 -3.15625 L 2.546875 -1.234375 L 2.546875 -3.15625 Z M 3.28125 -3.15625 "/></g></g></g><g fill="#000000" fill-opacity="1"><g transform="translate(14.187967, 10.39901)"><g><path d="M 0.375 -3.15625 L 1.8125 -3.15625 C 2.15625 -3.15625 2.457031 -3.085938 2.71875 -2.953125 C 2.976562 -2.828125 3.179688 -2.644531 3.328125 -2.40625 C 3.472656 -2.164062 3.546875 -1.890625 3.546875 -1.578125 C 3.546875 -1.265625 3.472656 -0.988281 3.328125 -0.75 C 3.179688 -0.507812 2.976562 -0.320312 2.71875 -0.1875 C 2.457031 -0.0625 2.15625 0 1.8125 0 L 0.375 0 Z M 1.78125 -0.59375 C 2.09375 -0.59375 2.34375 -0.679688 2.53125 -0.859375 C 2.71875 -1.035156 2.8125 -1.273438 2.8125 -1.578125 C 2.8125 -1.878906 2.71875 -2.117188 2.53125 -2.296875 C 2.34375 -2.472656 2.09375 -2.5625 1.78125 -2.5625 L 1.109375 -2.5625 L 1.109375 -0.59375 Z M 1.78125 -0.59375 "/></g></g></g><g fill="#000000" fill-opacity="1"><g transform="translate(18.878399, 10.39901)"><g><path d="M 2.828125 -0.59375 L 2.828125 0 L 0.375 0 L 0.375 -3.15625 L 2.765625 -3.15625 L 2.765625 -2.578125 L 1.109375 -2.578125 L 1.109375 -1.890625 L 2.5625 -1.890625 L 2.5625 -1.3125 L 1.109375 -1.3125 L 1.109375 -0.59375 Z M 2.828125 -0.59375 "/></g></g></g><g fill="#000000" fill-opacity="1"><g transform="translate(22.869107, 10.39901)"><g><path d="M 2.390625 0 L 1.78125 -0.875 L 1.109375 -0.875 L 1.109375 0 L 0.375 0 L 0.375 -3.15625 L 1.75 -3.15625 C 2.019531 -3.15625 2.257812 -3.109375 2.46875 -3.015625 C 2.675781 -2.921875 2.832031 -2.785156 2.9375 -2.609375 C 3.050781 -2.441406 3.109375 -2.242188 3.109375 -2.015625 C 3.109375 -1.773438 3.050781 -1.570312 2.9375 -1.40625 C 2.832031 -1.238281 2.675781 -1.109375 2.46875 -1.015625 L 3.171875 0 Z M 2.375 -2.015625 C 2.375 -2.191406 2.316406 -2.328125 2.203125 -2.421875 C 2.085938 -2.515625 1.921875 -2.5625 1.703125 -2.5625 L 1.109375 -2.5625 L 1.109375 -1.46875 L 1.703125 -1.46875 C 1.921875 -1.46875 2.085938 -1.515625 2.203125 -1.609375 C 2.316406 -1.703125 2.375 -1.835938 2.375 -2.015625 Z M 2.375 -2.015625 "/></g></g></g><g fill="#000000" fill-opacity="1"><g transform="translate(27.148735, 10.39901)"><g><path d="M 3.28125 -3.15625 L 3.28125 0 L 2.546875 0 L 2.546875 -1.296875 L 1.109375 -1.296875 L 1.109375 0 L 0.375 0 L 0.375 -3.15625 L 1.109375 -3.15625 L 1.109375 -1.921875 L 2.546875 -1.921875 L 2.546875 -3.15625 Z M 3.28125 -3.15625 "/></g></g></g><g fill="#000000" fill-opacity="1"><g transform="translate(31.757914, 10.39901)"><g><path d="M 2.828125 -0.59375 L 2.828125 0 L 0.375 0 L 0.375 -3.15625 L 2.765625 -3.15625 L 2.765625 -2.578125 L 1.109375 -2.578125 L 1.109375 -1.890625 L 2.5625 -1.890625 L 2.5625 -1.3125 L 1.109375 -1.3125 L 1.109375 -0.59375 Z M 2.828125 -0.59375 "/></g></g></g><g fill="#000000" fill-opacity="1"><g transform="translate(35.748622, 10.39901)"><g><path d="M 1.890625 -1.125 L 1.890625 0 L 1.15625 0 L 1.15625 -1.125 L -0.0625 -3.15625 L 0.71875 -3.15625 L 1.5625 -1.75 L 2.40625 -3.15625 L 3.125 -3.15625 Z M 1.890625 -1.125 "/></g></g></g><g fill="#000000" fill-opacity="1"><g transform="translate(39.7619, 10.39901)"><g><path d="M 0.375 -3.15625 L 1.8125 -3.15625 C 2.15625 -3.15625 2.457031 -3.085938 2.71875 -2.953125 C 2.976562 -2.828125 3.179688 -2.644531 3.328125 -2.40625 C 3.472656 -2.164062 3.546875 -1.890625 3.546875 -1.578125 C 3.546875 -1.265625 3.472656 -0.988281 3.328125 -0.75 C 3.179688 -0.507812 2.976562 -0.320312 2.71875 -0.1875 C 2.457031 -0.0625 2.15625 0 1.8125 0 L 0.375 0 Z M 1.78125 -0.59375 C 2.09375 -0.59375 2.34375 -0.679688 2.53125 -0.859375 C 2.71875 -1.035156 2.8125 -1.273438 2.8125 -1.578125 C 2.8125 -1.878906 2.71875 -2.117188 2.53125 -2.296875 C 2.34375 -2.472656 2.09375 -2.5625 1.78125 -2.5625 L 1.109375 -2.5625 L 1.109375 -0.59375 Z M 1.78125 -0.59375 "/></g></g></g><g fill="#000000" fill-opacity="1"><g transform="translate(44.452333, 10.39901)"><g><path d="M 2.828125 -0.59375 L 2.828125 0 L 0.375 0 L 0.375 -3.15625 L 2.765625 -3.15625 L 2.765625 -2.578125 L 1.109375 -2.578125 L 1.109375 -1.890625 L 2.5625 -1.890625 L 2.5625 -1.3125 L 1.109375 -1.3125 L 1.109375 -0.59375 Z M 2.828125 -0.59375 "/></g></g></g><g fill="#000000" fill-opacity="1"><g transform="translate(48.443041, 10.39901)"><g><path d="M 3.28125 -3.15625 L 3.28125 0 L 2.671875 0 L 1.09375 -1.921875 L 1.09375 0 L 0.375 0 L 0.375 -3.15625 L 0.984375 -3.15625 L 2.546875 -1.234375 L 2.546875 -3.15625 Z M 3.28125 -3.15625 "/></g></g></g></g></g><g transform="matrix(1, 0, 0, 1, 42, 76)"><g clip-path="url(#35e6b4b62d)"><g clip-path="url(#d99e25b0d6)"><g fill="#000000" fill-opacity="1"><g transform="translate(0.748592, 4.447491)"><g><path d="M 1.890625 0.03125 C 1.566406 0.03125 1.28125 -0.0351562 1.03125 -0.171875 C 0.78125 -0.316406 0.582031 -0.507812 0.4375 -0.75 C 0.289062 -1 0.21875 -1.273438 0.21875 -1.578125 C 0.21875 -1.890625 0.289062 -2.164062 0.4375 -2.40625 C 0.582031 -2.65625 0.78125 -2.847656 1.03125 -2.984375 C 1.289062 -3.128906 1.578125 -3.203125 1.890625 -3.203125 C 2.140625 -3.203125 2.363281 -3.160156 2.5625 -3.078125 C 2.769531 -2.992188 2.945312 -2.867188 3.09375 -2.703125 L 2.796875 -2.421875 C 2.554688 -2.671875 2.257812 -2.796875 1.90625 -2.796875 C 1.675781 -2.796875 1.460938 -2.742188 1.265625 -2.640625 C 1.078125 -2.535156 0.929688 -2.390625 0.828125 -2.203125 C 0.722656 -2.015625 0.671875 -1.804688 0.671875 -1.578125 C 0.671875 -1.347656 0.722656 -1.140625 0.828125 -0.953125 C 0.929688 -0.773438 1.078125 -0.628906 1.265625 -0.515625 C 1.460938 -0.410156 1.675781 -0.359375 1.90625 -0.359375 C 2.257812 -0.359375 2.554688 -0.488281 2.796875 -0.75 L 3.09375 -0.453125 C 2.945312 -0.296875 2.769531 -0.175781 2.5625 -0.09375 C 2.363281 -0.0078125 2.140625 0.03125 1.890625 0.03125 Z M 1.890625 0.03125 "/></g></g></g></g><g fill="#000000" fill-opacity="1"><g transform="translate(4.974045, 4.447491)"><g><path d="M 1.90625 0.03125 C 1.582031 0.03125 1.289062 -0.0351562 1.03125 -0.171875 C 0.78125 -0.316406 0.582031 -0.507812 0.4375 -0.75 C 0.289062 -1 0.21875 -1.273438 0.21875 -1.578125 C 0.21875 -1.878906 0.289062 -2.15625 0.4375 -2.40625 C 0.582031 -2.65625 0.78125 -2.847656 1.03125 -2.984375 C 1.289062 -3.128906 1.582031 -3.203125 1.90625 -3.203125 C 2.21875 -3.203125 2.5 -3.128906 2.75 -2.984375 C 3.007812 -2.847656 3.210938 -2.65625 3.359375 -2.40625 C 3.503906 -2.164062 3.578125 -1.890625 3.578125 -1.578125 C 3.578125 -1.273438 3.503906 -1 3.359375 -0.75 C 3.210938 -0.507812 3.007812 -0.316406 2.75 -0.171875 C 2.5 -0.0351562 2.21875 0.03125 1.90625 0.03125 Z M 1.90625 -0.359375 C 2.132812 -0.359375 2.335938 -0.410156 2.515625 -0.515625 C 2.703125 -0.628906 2.847656 -0.773438 2.953125 -0.953125 C 3.066406 -1.140625 3.125 -1.347656 3.125 -1.578125 C 3.125 -1.804688 3.066406 -2.015625 2.953125 -2.203125 C 2.847656 -2.390625 2.703125 -2.535156 2.515625 -2.640625 C 2.335938 -2.742188 2.132812 -2.796875 1.90625 -2.796875 C 1.664062 -2.796875 1.453125 -2.742188 1.265625 -2.640625 C 1.078125 -2.535156 0.929688 -2.390625 0.828125 -2.203125 C 0.722656 -2.015625 0.671875 -1.804688 0.671875 -1.578125 C 0.671875 -1.347656 0.722656 -1.140625 0.828125 -0.953125 C 0.929688 -0.773438 1.078125 -0.628906 1.265625 -0.515625 C 1.453125 -0.410156 1.664062 -0.359375 1.90625 -0.359375 Z M 1.90625 -0.359375 "/></g></g></g><g fill="#000000" fill-opacity="1"><g transform="translate(9.727686, 4.447491)"><g><path d="M 3.1875 -3.15625 L 3.1875 0 L 2.828125 0 L 0.921875 -2.359375 L 0.921875 0 L 0.46875 0 L 0.46875 -3.15625 L 0.84375 -3.15625 L 2.734375 -0.796875 L 2.734375 -3.15625 Z M 3.1875 -3.15625 "/></g></g></g><g fill="#000000" fill-opacity="1"><g transform="translate(14.354919, 4.447491)"><g><path d="M 1.390625 0.03125 C 1.148438 0.03125 0.921875 -0.00390625 0.703125 -0.078125 C 0.484375 -0.148438 0.3125 -0.242188 0.1875 -0.359375 L 0.359375 -0.71875 C 0.472656 -0.601562 0.625 -0.507812 0.8125 -0.4375 C 1 -0.375 1.191406 -0.34375 1.390625 -0.34375 C 1.648438 -0.34375 1.84375 -0.382812 1.96875 -0.46875 C 2.101562 -0.5625 2.171875 -0.679688 2.171875 -0.828125 C 2.171875 -0.941406 2.132812 -1.03125 2.0625 -1.09375 C 2 -1.164062 1.914062 -1.21875 1.8125 -1.25 C 1.707031 -1.289062 1.5625 -1.332031 1.375 -1.375 C 1.132812 -1.4375 0.941406 -1.492188 0.796875 -1.546875 C 0.648438 -1.609375 0.523438 -1.695312 0.421875 -1.8125 C 0.316406 -1.925781 0.265625 -2.085938 0.265625 -2.296875 C 0.265625 -2.460938 0.304688 -2.613281 0.390625 -2.75 C 0.484375 -2.882812 0.617188 -2.992188 0.796875 -3.078125 C 0.972656 -3.160156 1.195312 -3.203125 1.46875 -3.203125 C 1.65625 -3.203125 1.835938 -3.175781 2.015625 -3.125 C 2.203125 -3.070312 2.359375 -3.003906 2.484375 -2.921875 L 2.34375 -2.5625 C 2.207031 -2.644531 2.0625 -2.707031 1.90625 -2.75 C 1.757812 -2.789062 1.613281 -2.8125 1.46875 -2.8125 C 1.21875 -2.8125 1.023438 -2.765625 0.890625 -2.671875 C 0.765625 -2.578125 0.703125 -2.457031 0.703125 -2.3125 C 0.703125 -2.207031 0.738281 -2.117188 0.8125 -2.046875 C 0.882812 -1.984375 0.972656 -1.929688 1.078125 -1.890625 C 1.179688 -1.847656 1.328125 -1.804688 1.515625 -1.765625 C 1.753906 -1.710938 1.945312 -1.65625 2.09375 -1.59375 C 2.238281 -1.539062 2.363281 -1.453125 2.46875 -1.328125 C 2.570312 -1.210938 2.625 -1.054688 2.625 -0.859375 C 2.625 -0.691406 2.578125 -0.539062 2.484375 -0.40625 C 2.390625 -0.269531 2.25 -0.160156 2.0625 -0.078125 C 1.882812 -0.00390625 1.660156 0.03125 1.390625 0.03125 Z M 1.390625 0.03125 "/></g></g></g><g fill="#000000" fill-opacity="1"><g transform="translate(18.119909, 4.447491)"><g><path d="M 1.78125 0.03125 C 1.363281 0.03125 1.035156 -0.0859375 0.796875 -0.328125 C 0.566406 -0.566406 0.453125 -0.910156 0.453125 -1.359375 L 0.453125 -3.15625 L 0.90625 -3.15625 L 0.90625 -1.375 C 0.90625 -0.695312 1.195312 -0.359375 1.78125 -0.359375 C 2.070312 -0.359375 2.296875 -0.441406 2.453125 -0.609375 C 2.609375 -0.773438 2.6875 -1.03125 2.6875 -1.375 L 2.6875 -3.15625 L 3.125 -3.15625 L 3.125 -1.359375 C 3.125 -0.910156 3.003906 -0.566406 2.765625 -0.328125 C 2.535156 -0.0859375 2.207031 0.03125 1.78125 0.03125 Z M 1.78125 0.03125 "/></g></g></g><g fill="#000000" fill-opacity="1"><g transform="translate(22.652341, 4.447491)"><g><path d="M 0.46875 -3.15625 L 0.921875 -3.15625 L 0.921875 -0.390625 L 2.640625 -0.390625 L 2.640625 0 L 0.46875 0 Z M 0.46875 -3.15625 "/></g></g></g><g fill="#000000" fill-opacity="1"><g transform="translate(26.295441, 4.447491)"><g><path d="M 1.109375 -2.765625 L 0.015625 -2.765625 L 0.015625 -3.15625 L 2.625 -3.15625 L 2.625 -2.765625 L 1.546875 -2.765625 L 1.546875 0 L 1.109375 0 Z M 1.109375 -2.765625 "/></g></g></g><g fill="#000000" fill-opacity="1"><g transform="translate(29.906941, 4.447491)"><g><path d="M 2.484375 -0.796875 L 0.8125 -0.796875 L 0.453125 0 L 0 0 L 1.421875 -3.15625 L 1.875 -3.15625 L 3.3125 0 L 2.828125 0 Z M 2.328125 -1.15625 L 1.640625 -2.703125 L 0.96875 -1.15625 Z M 2.328125 -1.15625 "/></g></g></g><g fill="#000000" fill-opacity="1"><g transform="translate(34.173024, 4.447491)"><g><path d="M 3.1875 -3.15625 L 3.1875 0 L 2.828125 0 L 0.921875 -2.359375 L 0.921875 0 L 0.46875 0 L 0.46875 -3.15625 L 0.84375 -3.15625 L 2.734375 -0.796875 L 2.734375 -3.15625 Z M 3.1875 -3.15625 "/></g></g></g><g fill="#000000" fill-opacity="1"><g transform="translate(38.800258, 4.447491)"><g><path d="M 1.109375 -2.765625 L 0.015625 -2.765625 L 0.015625 -3.15625 L 2.625 -3.15625 L 2.625 -2.765625 L 1.546875 -2.765625 L 1.546875 0 L 1.109375 0 Z M 1.109375 -2.765625 "/></g></g></g><g fill="#000000" fill-opacity="1"><g transform="translate(42.411758, 4.447491)"><g><path d="M 2.765625 -0.390625 L 2.765625 0 L 0.46875 0 L 0.46875 -3.15625 L 2.703125 -3.15625 L 2.703125 -2.765625 L 0.921875 -2.765625 L 0.921875 -1.796875 L 2.515625 -1.796875 L 2.515625 -1.40625 L 0.921875 -1.40625 L 0.921875 -0.390625 Z M 2.765625 -0.390625 "/></g></g></g><g fill="#000000" fill-opacity="1"><g transform="translate(46.397949, 4.447491)"><g/></g></g><g fill="#000000" fill-opacity="1"><g transform="translate(48.573877, 4.447491)"><g><path d="M 2.484375 -0.796875 L 0.8125 -0.796875 L 0.453125 0 L 0 0 L 1.421875 -3.15625 L 1.875 -3.15625 L 3.3125 0 L 2.828125 0 Z M 2.328125 -1.15625 L 1.640625 -2.703125 L 0.96875 -1.15625 Z M 2.328125 -1.15625 "/></g></g></g><g fill="#000000" fill-opacity="1"><g transform="translate(52.839959, 4.447491)"><g><path d="M 0.46875 -3.15625 L 1.8125 -3.15625 C 2.144531 -3.15625 2.4375 -3.085938 2.6875 -2.953125 C 2.945312 -2.828125 3.148438 -2.644531 3.296875 -2.40625 C 3.441406 -2.164062 3.515625 -1.890625 3.515625 -1.578125 C 3.515625 -1.265625 3.441406 -0.988281 3.296875 -0.75 C 3.148438 -0.507812 2.945312 -0.320312 2.6875 -0.1875 C 2.4375 -0.0625 2.144531 0 1.8125 0 L 0.46875 0 Z M 1.78125 -0.390625 C 2.03125 -0.390625 2.253906 -0.4375 2.453125 -0.53125 C 2.648438 -0.632812 2.800781 -0.773438 2.90625 -0.953125 C 3.007812 -1.140625 3.0625 -1.347656 3.0625 -1.578125 C 3.0625 -1.816406 3.007812 -2.023438 2.90625 -2.203125 C 2.800781 -2.378906 2.648438 -2.515625 2.453125 -2.609375 C 2.253906 -2.710938 2.03125 -2.765625 1.78125 -2.765625 L 0.921875 -2.765625 L 0.921875 -0.390625 Z M 1.78125 -0.390625 "/></g></g></g><g fill="#000000" fill-opacity="1"><g transform="translate(57.530393, 4.447491)"><g><path d="M 3.40625 0 L 3.40625 -2.296875 L 2.265625 -0.390625 L 2.046875 -0.390625 L 0.90625 -2.296875 L 0.90625 0 L 0.46875 0 L 0.46875 -3.15625 L 0.84375 -3.15625 L 2.15625 -0.9375 L 3.46875 -3.15625 L 3.828125 -3.15625 L 3.84375 0 Z M 3.40625 0 "/></g></g></g><g fill="#000000" fill-opacity="1"><g transform="translate(62.803186, 4.447491)"><g><path d="M 0.46875 -3.15625 L 0.921875 -3.15625 L 0.921875 0 L 0.46875 0 Z M 0.46875 -3.15625 "/></g></g></g><g fill="#000000" fill-opacity="1"><g transform="translate(65.164203, 4.447491)"><g><path d="M 3.1875 -3.15625 L 3.1875 0 L 2.828125 0 L 0.921875 -2.359375 L 0.921875 0 L 0.46875 0 L 0.46875 -3.15625 L 0.84375 -3.15625 L 2.734375 -0.796875 L 2.734375 -3.15625 Z M 3.1875 -3.15625 "/></g></g></g><g fill="#000000" fill-opacity="1"><g transform="translate(69.791437, 4.447491)"><g><path d="M 0.46875 -3.15625 L 0.921875 -3.15625 L 0.921875 0 L 0.46875 0 Z M 0.46875 -3.15625 "/></g></g></g><g fill="#000000" fill-opacity="1"><g transform="translate(72.152454, 4.447491)"><g><path d="M 1.390625 0.03125 C 1.148438 0.03125 0.921875 -0.00390625 0.703125 -0.078125 C 0.484375 -0.148438 0.3125 -0.242188 0.1875 -0.359375 L 0.359375 -0.71875 C 0.472656 -0.601562 0.625 -0.507812 0.8125 -0.4375 C 1 -0.375 1.191406 -0.34375 1.390625 -0.34375 C 1.648438 -0.34375 1.84375 -0.382812 1.96875 -0.46875 C 2.101562 -0.5625 2.171875 -0.679688 2.171875 -0.828125 C 2.171875 -0.941406 2.132812 -1.03125 2.0625 -1.09375 C 2 -1.164062 1.914062 -1.21875 1.8125 -1.25 C 1.707031 -1.289062 1.5625 -1.332031 1.375 -1.375 C 1.132812 -1.4375 0.941406 -1.492188 0.796875 -1.546875 C 0.648438 -1.609375 0.523438 -1.695312 0.421875 -1.8125 C 0.316406 -1.925781 0.265625 -2.085938 0.265625 -2.296875 C 0.265625 -2.460938 0.304688 -2.613281 0.390625 -2.75 C 0.484375 -2.882812 0.617188 -2.992188 0.796875 -3.078125 C 0.972656 -3.160156 1.195312 -3.203125 1.46875 -3.203125 C 1.65625 -3.203125 1.835938 -3.175781 2.015625 -3.125 C 2.203125 -3.070312 2.359375 -3.003906 2.484375 -2.921875 L 2.34375 -2.5625 C 2.207031 -2.644531 2.0625 -2.707031 1.90625 -2.75 C 1.757812 -2.789062 1.613281 -2.8125 1.46875 -2.8125 C 1.21875 -2.8125 1.023438 -2.765625 0.890625 -2.671875 C 0.765625 -2.578125 0.703125 -2.457031 0.703125 -2.3125 C 0.703125 -2.207031 0.738281 -2.117188 0.8125 -2.046875 C 0.882812 -1.984375 0.972656 -1.929688 1.078125 -1.890625 C 1.179688 -1.847656 1.328125 -1.804688 1.515625 -1.765625 C 1.753906 -1.710938 1.945312 -1.65625 2.09375 -1.59375 C 2.238281 -1.539062 2.363281 -1.453125 2.46875 -1.328125 C 2.570312 -1.210938 2.625 -1.054688 2.625 -0.859375 C 2.625 -0.691406 2.578125 -0.539062 2.484375 -0.40625 C 2.390625 -0.269531 2.25 -0.160156 2.0625 -0.078125 C 1.882812 -0.00390625 1.660156 0.03125 1.390625 0.03125 Z M 1.390625 0.03125 "/></g></g></g><g fill="#000000" fill-opacity="1"><g transform="translate(75.917443, 4.447491)"><g><path d="M 1.109375 -2.765625 L 0.015625 -2.765625 L 0.015625 -3.15625 L 2.625 -3.15625 L 2.625 -2.765625 L 1.546875 -2.765625 L 1.546875 0 L 1.109375 0 Z M 1.109375 -2.765625 "/></g></g></g><g fill="#000000" fill-opacity="1"><g transform="translate(79.528943, 4.447491)"><g><path d="M 2.59375 0 L 1.90625 -0.96875 C 1.820312 -0.96875 1.753906 -0.96875 1.703125 -0.96875 L 0.921875 -0.96875 L 0.921875 0 L 0.46875 0 L 0.46875 -3.15625 L 1.703125 -3.15625 C 2.117188 -3.15625 2.441406 -3.054688 2.671875 -2.859375 C 2.910156 -2.671875 3.03125 -2.40625 3.03125 -2.0625 C 3.03125 -1.8125 2.96875 -1.597656 2.84375 -1.421875 C 2.726562 -1.253906 2.554688 -1.132812 2.328125 -1.0625 L 3.078125 0 Z M 1.6875 -1.34375 C 1.976562 -1.34375 2.195312 -1.40625 2.34375 -1.53125 C 2.5 -1.65625 2.578125 -1.832031 2.578125 -2.0625 C 2.578125 -2.289062 2.5 -2.460938 2.34375 -2.578125 C 2.195312 -2.703125 1.976562 -2.765625 1.6875 -2.765625 L 0.921875 -2.765625 L 0.921875 -1.34375 Z M 1.6875 -1.34375 "/></g></g></g><g fill="#000000" fill-opacity="1"><g transform="translate(83.772455, 4.447491)"><g><path d="M 2.484375 -0.796875 L 0.8125 -0.796875 L 0.453125 0 L 0 0 L 1.421875 -3.15625 L 1.875 -3.15625 L 3.3125 0 L 2.828125 0 Z M 2.328125 -1.15625 L 1.640625 -2.703125 L 0.96875 -1.15625 Z M 2.328125 -1.15625 "/></g></g></g><g fill="#000000" fill-opacity="1"><g transform="translate(88.038538, 4.447491)"><g><path d="M 1.109375 -2.765625 L 0.015625 -2.765625 L 0.015625 -3.15625 L 2.625 -3.15625 L 2.625 -2.765625 L 1.546875 -2.765625 L 1.546875 0 L 1.109375 0 Z M 1.109375 -2.765625 "/></g></g></g><g fill="#000000" fill-opacity="1"><g transform="translate(91.650038, 4.447491)"><g><path d="M 0.46875 -3.15625 L 0.921875 -3.15625 L 0.921875 0 L 0.46875 0 Z M 0.46875 -3.15625 "/></g></g></g><g fill="#000000" fill-opacity="1"><g transform="translate(94.011055, 4.447491)"><g><path d="M 3.21875 -3.15625 L 1.828125 0 L 1.390625 0 L 0 -3.15625 L 0.484375 -3.15625 L 1.625 -0.5625 L 2.765625 -3.15625 Z M 3.21875 -3.15625 "/></g></g></g><g fill="#000000" fill-opacity="1"><g transform="translate(98.186861, 4.447491)"><g><path d="M 2.765625 -0.390625 L 2.765625 0 L 0.46875 0 L 0.46875 -3.15625 L 2.703125 -3.15625 L 2.703125 -2.765625 L 0.921875 -2.765625 L 0.921875 -1.796875 L 2.515625 -1.796875 L 2.515625 -1.40625 L 0.921875 -1.40625 L 0.921875 -0.390625 Z M 2.765625 -0.390625 "/></g></g></g><g fill="#000000" fill-opacity="1"><g transform="translate(102.173047, 4.447491)"><g/></g></g><g fill="#000000" fill-opacity="1"><g transform="translate(104.348974, 4.447491)"><g><path d="M 0.46875 -3.15625 L 0.921875 -3.15625 L 0.921875 0 L 0.46875 0 Z M 0.46875 -3.15625 "/></g></g></g><g fill="#000000" fill-opacity="1"><g transform="translate(106.709991, 4.447491)"><g><path d="M 3.1875 -3.15625 L 3.1875 0 L 2.828125 0 L 0.921875 -2.359375 L 0.921875 0 L 0.46875 0 L 0.46875 -3.15625 L 0.84375 -3.15625 L 2.734375 -0.796875 L 2.734375 -3.15625 Z M 3.1875 -3.15625 "/></g></g></g><g fill="#000000" fill-opacity="1"><g transform="translate(111.33723, 4.447491)"><g><path d="M 0.46875 -3.15625 L 1.8125 -3.15625 C 2.144531 -3.15625 2.4375 -3.085938 2.6875 -2.953125 C 2.945312 -2.828125 3.148438 -2.644531 3.296875 -2.40625 C 3.441406 -2.164062 3.515625 -1.890625 3.515625 -1.578125 C 3.515625 -1.265625 3.441406 -0.988281 3.296875 -0.75 C 3.148438 -0.507812 2.945312 -0.320312 2.6875 -0.1875 C 2.4375 -0.0625 2.144531 0 1.8125 0 L 0.46875 0 Z M 1.78125 -0.390625 C 2.03125 -0.390625 2.253906 -0.4375 2.453125 -0.53125 C 2.648438 -0.632812 2.800781 -0.773438 2.90625 -0.953125 C 3.007812 -1.140625 3.0625 -1.347656 3.0625 -1.578125 C 3.0625 -1.816406 3.007812 -2.023438 2.90625 -2.203125 C 2.800781 -2.378906 2.648438 -2.515625 2.453125 -2.609375 C 2.253906 -2.710938 2.03125 -2.765625 1.78125 -2.765625 L 0.921875 -2.765625 L 0.921875 -0.390625 Z M 1.78125 -0.390625 "/></g></g></g><g clip-path="url(#ffe5520ea5)"><g fill="#000000" fill-opacity="1"><g transform="translate(116.027658, 4.447491)"><g><path d="M 2.765625 -0.390625 L 2.765625 0 L 0.46875 0 L 0.46875 -3.15625 L 2.703125 -3.15625 L 2.703125 -2.765625 L 0.921875 -2.765625 L 0.921875 -1.796875 L 2.515625 -1.796875 L 2.515625 -1.40625 L 0.921875 -1.40625 L 0.921875 -0.390625 Z M 1.875 -4 L 2.421875 -4 L 1.671875 -3.421875 L 1.265625 -3.421875 Z M 1.875 -4 "/></g></g></g></g><g fill="#000000" fill-opacity="1"><g transform="translate(120.013844, 4.447491)"><g><path d="M 1.703125 -3.15625 C 2.117188 -3.15625 2.441406 -3.054688 2.671875 -2.859375 C 2.910156 -2.671875 3.03125 -2.40625 3.03125 -2.0625 C 3.03125 -1.71875 2.910156 -1.445312 2.671875 -1.25 C 2.441406 -1.050781 2.117188 -0.953125 1.703125 -0.953125 L 0.921875 -0.953125 L 0.921875 0 L 0.46875 0 L 0.46875 -3.15625 Z M 1.6875 -1.34375 C 1.976562 -1.34375 2.195312 -1.40625 2.34375 -1.53125 C 2.5 -1.65625 2.578125 -1.832031 2.578125 -2.0625 C 2.578125 -2.289062 2.5 -2.460938 2.34375 -2.578125 C 2.195312 -2.703125 1.976562 -2.765625 1.6875 -2.765625 L 0.921875 -2.765625 L 0.921875 -1.34375 Z M 1.6875 -1.34375 "/></g></g></g><g fill="#000000" fill-opacity="1"><g transform="translate(124.234797, 4.447491)"><g><path d="M 2.765625 -0.390625 L 2.765625 0 L 0.46875 0 L 0.46875 -3.15625 L 2.703125 -3.15625 L 2.703125 -2.765625 L 0.921875 -2.765625 L 0.921875 -1.796875 L 2.515625 -1.796875 L 2.515625 -1.40625 L 0.921875 -1.40625 L 0.921875 -0.390625 Z M 2.765625 -0.390625 "/></g></g></g><g fill="#000000" fill-opacity="1"><g transform="translate(128.220983, 4.447491)"><g><path d="M 3.1875 -3.15625 L 3.1875 0 L 2.828125 0 L 0.921875 -2.359375 L 0.921875 0 L 0.46875 0 L 0.46875 -3.15625 L 0.84375 -3.15625 L 2.734375 -0.796875 L 2.734375 -3.15625 Z M 3.1875 -3.15625 "/></g></g></g><g fill="#000000" fill-opacity="1"><g transform="translate(132.848222, 4.447491)"><g><path d="M 0.46875 -3.15625 L 1.8125 -3.15625 C 2.144531 -3.15625 2.4375 -3.085938 2.6875 -2.953125 C 2.945312 -2.828125 3.148438 -2.644531 3.296875 -2.40625 C 3.441406 -2.164062 3.515625 -1.890625 3.515625 -1.578125 C 3.515625 -1.265625 3.441406 -0.988281 3.296875 -0.75 C 3.148438 -0.507812 2.945312 -0.320312 2.6875 -0.1875 C 2.4375 -0.0625 2.144531 0 1.8125 0 L 0.46875 0 Z M 1.78125 -0.390625 C 2.03125 -0.390625 2.253906 -0.4375 2.453125 -0.53125 C 2.648438 -0.632812 2.800781 -0.773438 2.90625 -0.953125 C 3.007812 -1.140625 3.0625 -1.347656 3.0625 -1.578125 C 3.0625 -1.816406 3.007812 -2.023438 2.90625 -2.203125 C 2.800781 -2.378906 2.648438 -2.515625 2.453125 -2.609375 C 2.253906 -2.710938 2.03125 -2.765625 1.78125 -2.765625 L 0.921875 -2.765625 L 0.921875 -0.390625 Z M 1.78125 -0.390625 "/></g></g></g><g fill="#000000" fill-opacity="1"><g transform="translate(137.538651, 4.447491)"><g><path d="M 2.484375 -0.796875 L 0.8125 -0.796875 L 0.453125 0 L 0 0 L 1.421875 -3.15625 L 1.875 -3.15625 L 3.3125 0 L 2.828125 0 Z M 2.328125 -1.15625 L 1.640625 -2.703125 L 0.96875 -1.15625 Z M 2.328125 -1.15625 "/></g></g></g><g fill="#000000" fill-opacity="1"><g transform="translate(141.804733, 4.447491)"><g><path d="M 3.1875 -3.15625 L 3.1875 0 L 2.828125 0 L 0.921875 -2.359375 L 0.921875 0 L 0.46875 0 L 0.46875 -3.15625 L 0.84375 -3.15625 L 2.734375 -0.796875 L 2.734375 -3.15625 Z M 3.1875 -3.15625 "/></g></g></g><g fill="#000000" fill-opacity="1"><g transform="translate(146.431961, 4.447491)"><g><path d="M 1.109375 -2.765625 L 0.015625 -2.765625 L 0.015625 -3.15625 L 2.625 -3.15625 L 2.625 -2.765625 L 1.546875 -2.765625 L 1.546875 0 L 1.109375 0 Z M 1.109375 -2.765625 "/></g></g></g><g fill="#000000" fill-opacity="1"><g transform="translate(150.043467, 4.447491)"><g><path d="M 2.765625 -0.390625 L 2.765625 0 L 0.46875 0 L 0.46875 -3.15625 L 2.703125 -3.15625 L 2.703125 -2.765625 L 0.921875 -2.765625 L 0.921875 -1.796875 L 2.515625 -1.796875 L 2.515625 -1.40625 L 0.921875 -1.40625 L 0.921875 -0.390625 Z M 2.765625 -0.390625 "/></g></g></g><g fill="#000000" fill-opacity="1"><g transform="translate(154.03078, 4.447491)"><g/></g></g></g></g><g transform="matrix(1, 0, 0, 1, 62, 84)"><g clip-path="url(#66191d6e93)"><g clip-path="url(#b3db400066)"><g fill="#000000" fill-opacity="1"><g transform="translate(0.44484, 4.027835)"><g><path d="M 2.0625 -1.1875 L 2.296875 -1.1875 L 2.296875 -0.28125 C 2.179688 -0.1875 2.046875 -0.113281 1.890625 -0.0625 C 1.742188 -0.0078125 1.585938 0.015625 1.421875 0.015625 C 1.191406 0.015625 0.976562 -0.0351562 0.78125 -0.140625 C 0.59375 -0.242188 0.441406 -0.382812 0.328125 -0.5625 C 0.222656 -0.75 0.171875 -0.957031 0.171875 -1.1875 C 0.171875 -1.414062 0.222656 -1.617188 0.328125 -1.796875 C 0.441406 -1.984375 0.59375 -2.128906 0.78125 -2.234375 C 0.976562 -2.335938 1.195312 -2.390625 1.4375 -2.390625 C 1.613281 -2.390625 1.773438 -2.359375 1.921875 -2.296875 C 2.078125 -2.242188 2.207031 -2.160156 2.3125 -2.046875 L 2.15625 -1.890625 C 1.96875 -2.078125 1.726562 -2.171875 1.4375 -2.171875 C 1.25 -2.171875 1.078125 -2.128906 0.921875 -2.046875 C 0.765625 -1.960938 0.640625 -1.84375 0.546875 -1.6875 C 0.460938 -1.539062 0.421875 -1.375 0.421875 -1.1875 C 0.421875 -1 0.460938 -0.832031 0.546875 -0.6875 C 0.640625 -0.539062 0.765625 -0.421875 0.921875 -0.328125 C 1.078125 -0.242188 1.25 -0.203125 1.4375 -0.203125 C 1.675781 -0.203125 1.882812 -0.265625 2.0625 -0.390625 Z M 2.0625 -1.1875 "/></g></g></g></g><g fill="#000000" fill-opacity="1"><g transform="translate(3.783219, 4.027835)"><g><path d="M 1.890625 -0.8125 L 0.390625 -0.8125 C 0.410156 -0.632812 0.484375 -0.488281 0.609375 -0.375 C 0.734375 -0.257812 0.894531 -0.203125 1.09375 -0.203125 C 1.207031 -0.203125 1.3125 -0.21875 1.40625 -0.25 C 1.5 -0.289062 1.578125 -0.351562 1.640625 -0.4375 L 1.78125 -0.28125 C 1.695312 -0.175781 1.597656 -0.0976562 1.484375 -0.046875 C 1.367188 -0.00390625 1.238281 0.015625 1.09375 0.015625 C 0.90625 0.015625 0.738281 -0.0195312 0.59375 -0.09375 C 0.457031 -0.175781 0.347656 -0.285156 0.265625 -0.421875 C 0.191406 -0.554688 0.15625 -0.710938 0.15625 -0.890625 C 0.15625 -1.066406 0.191406 -1.222656 0.265625 -1.359375 C 0.347656 -1.492188 0.453125 -1.597656 0.578125 -1.671875 C 0.710938 -1.753906 0.863281 -1.796875 1.03125 -1.796875 C 1.195312 -1.796875 1.34375 -1.753906 1.46875 -1.671875 C 1.601562 -1.597656 1.707031 -1.492188 1.78125 -1.359375 C 1.851562 -1.222656 1.890625 -1.066406 1.890625 -0.890625 Z M 1.03125 -1.59375 C 0.851562 -1.59375 0.707031 -1.535156 0.59375 -1.421875 C 0.476562 -1.316406 0.410156 -1.175781 0.390625 -1 L 1.65625 -1 C 1.644531 -1.175781 1.578125 -1.316406 1.453125 -1.421875 C 1.335938 -1.535156 1.195312 -1.59375 1.03125 -1.59375 Z M 1.03125 -1.59375 "/></g></g></g><g fill="#000000" fill-opacity="1"><g transform="translate(6.549399, 4.027835)"><g><path d="M 0.8125 0.015625 C 0.664062 0.015625 0.523438 -0.00390625 0.390625 -0.046875 C 0.265625 -0.0859375 0.164062 -0.140625 0.09375 -0.203125 L 0.203125 -0.390625 C 0.273438 -0.335938 0.363281 -0.289062 0.46875 -0.25 C 0.582031 -0.207031 0.703125 -0.1875 0.828125 -0.1875 C 0.992188 -0.1875 1.113281 -0.210938 1.1875 -0.265625 C 1.269531 -0.316406 1.3125 -0.390625 1.3125 -0.484375 C 1.3125 -0.546875 1.289062 -0.59375 1.25 -0.625 C 1.207031 -0.664062 1.148438 -0.695312 1.078125 -0.71875 C 1.015625 -0.738281 0.929688 -0.757812 0.828125 -0.78125 C 0.679688 -0.8125 0.5625 -0.835938 0.46875 -0.859375 C 0.382812 -0.890625 0.3125 -0.9375 0.25 -1 C 0.1875 -1.070312 0.15625 -1.164062 0.15625 -1.28125 C 0.15625 -1.4375 0.21875 -1.5625 0.34375 -1.65625 C 0.46875 -1.75 0.640625 -1.796875 0.859375 -1.796875 C 0.972656 -1.796875 1.085938 -1.78125 1.203125 -1.75 C 1.316406 -1.71875 1.410156 -1.675781 1.484375 -1.625 L 1.390625 -1.4375 C 1.234375 -1.539062 1.054688 -1.59375 0.859375 -1.59375 C 0.703125 -1.59375 0.582031 -1.5625 0.5 -1.5 C 0.425781 -1.445312 0.390625 -1.378906 0.390625 -1.296875 C 0.390625 -1.222656 0.410156 -1.164062 0.453125 -1.125 C 0.503906 -1.09375 0.5625 -1.066406 0.625 -1.046875 C 0.6875 -1.023438 0.773438 -1.003906 0.890625 -0.984375 C 1.035156 -0.953125 1.148438 -0.921875 1.234375 -0.890625 C 1.316406 -0.867188 1.390625 -0.828125 1.453125 -0.765625 C 1.515625 -0.703125 1.546875 -0.609375 1.546875 -0.484375 C 1.546875 -0.328125 1.476562 -0.203125 1.34375 -0.109375 C 1.21875 -0.0234375 1.039062 0.015625 0.8125 0.015625 Z M 0.8125 0.015625 "/></g></g></g><g fill="#000000" fill-opacity="1"><g transform="translate(8.926215, 4.027835)"><g><path d="M 1.28125 -0.109375 C 1.226562 -0.0664062 1.164062 -0.0351562 1.09375 -0.015625 C 1.03125 0.00390625 0.96875 0.015625 0.90625 0.015625 C 0.726562 0.015625 0.59375 -0.0234375 0.5 -0.109375 C 0.414062 -0.203125 0.375 -0.332031 0.375 -0.5 L 0.375 -1.578125 L 0.0625 -1.578125 L 0.0625 -1.78125 L 0.375 -1.78125 L 0.375 -2.171875 L 0.609375 -2.171875 L 0.609375 -1.78125 L 1.15625 -1.78125 L 1.15625 -1.578125 L 0.609375 -1.578125 L 0.609375 -0.515625 C 0.609375 -0.410156 0.632812 -0.328125 0.6875 -0.265625 C 0.75 -0.210938 0.828125 -0.1875 0.921875 -0.1875 C 0.972656 -0.1875 1.019531 -0.191406 1.0625 -0.203125 C 1.113281 -0.222656 1.15625 -0.25 1.1875 -0.28125 Z M 1.28125 -0.109375 "/></g></g></g><g fill="#000000" fill-opacity="1"><g transform="translate(11.022013, 4.027835)"><g><path d="M 0.328125 -1.78125 L 0.578125 -1.78125 L 0.578125 0 L 0.328125 0 Z M 0.453125 -2.171875 C 0.398438 -2.171875 0.359375 -2.1875 0.328125 -2.21875 C 0.296875 -2.257812 0.28125 -2.300781 0.28125 -2.34375 C 0.28125 -2.394531 0.296875 -2.4375 0.328125 -2.46875 C 0.359375 -2.5 0.398438 -2.515625 0.453125 -2.515625 C 0.503906 -2.515625 0.546875 -2.5 0.578125 -2.46875 C 0.609375 -2.4375 0.625 -2.394531 0.625 -2.34375 C 0.625 -2.300781 0.609375 -2.257812 0.578125 -2.21875 C 0.546875 -2.1875 0.503906 -2.171875 0.453125 -2.171875 Z M 0.453125 -2.171875 "/></g></g></g><g fill="#000000" fill-opacity="1"><g transform="translate(12.653958, 4.027835)"><g><path d="M 1.0625 0.015625 C 0.894531 0.015625 0.738281 -0.0195312 0.59375 -0.09375 C 0.457031 -0.175781 0.347656 -0.285156 0.265625 -0.421875 C 0.191406 -0.554688 0.15625 -0.710938 0.15625 -0.890625 C 0.15625 -1.066406 0.191406 -1.222656 0.265625 -1.359375 C 0.347656 -1.492188 0.457031 -1.597656 0.59375 -1.671875 C 0.738281 -1.753906 0.894531 -1.796875 1.0625 -1.796875 C 1.238281 -1.796875 1.394531 -1.753906 1.53125 -1.671875 C 1.664062 -1.597656 1.769531 -1.492188 1.84375 -1.359375 C 1.925781 -1.222656 1.96875 -1.066406 1.96875 -0.890625 C 1.96875 -0.710938 1.925781 -0.554688 1.84375 -0.421875 C 1.769531 -0.285156 1.664062 -0.175781 1.53125 -0.09375 C 1.394531 -0.0195312 1.238281 0.015625 1.0625 0.015625 Z M 1.0625 -0.203125 C 1.1875 -0.203125 1.300781 -0.226562 1.40625 -0.28125 C 1.507812 -0.34375 1.585938 -0.425781 1.640625 -0.53125 C 1.691406 -0.632812 1.71875 -0.753906 1.71875 -0.890625 C 1.71875 -1.023438 1.691406 -1.144531 1.640625 -1.25 C 1.585938 -1.351562 1.507812 -1.4375 1.40625 -1.5 C 1.300781 -1.5625 1.1875 -1.59375 1.0625 -1.59375 C 0.9375 -1.59375 0.820312 -1.5625 0.71875 -1.5 C 0.625 -1.4375 0.546875 -1.351562 0.484375 -1.25 C 0.429688 -1.144531 0.40625 -1.023438 0.40625 -0.890625 C 0.40625 -0.753906 0.429688 -0.632812 0.484375 -0.53125 C 0.546875 -0.425781 0.625 -0.34375 0.71875 -0.28125 C 0.820312 -0.226562 0.9375 -0.203125 1.0625 -0.203125 Z M 1.0625 -0.203125 "/></g></g></g><g fill="#000000" fill-opacity="1"><g transform="translate(15.498011, 4.027835)"><g><path d="M 1.25 -1.796875 C 1.46875 -1.796875 1.644531 -1.726562 1.78125 -1.59375 C 1.914062 -1.46875 1.984375 -1.28125 1.984375 -1.03125 L 1.984375 0 L 1.734375 0 L 1.734375 -1.015625 C 1.734375 -1.191406 1.6875 -1.328125 1.59375 -1.421875 C 1.5 -1.523438 1.367188 -1.578125 1.203125 -1.578125 C 1.003906 -1.578125 0.847656 -1.519531 0.734375 -1.40625 C 0.628906 -1.289062 0.578125 -1.132812 0.578125 -0.9375 L 0.578125 0 L 0.328125 0 L 0.328125 -1.78125 L 0.5625 -1.78125 L 0.5625 -1.453125 C 0.632812 -1.566406 0.726562 -1.648438 0.84375 -1.703125 C 0.957031 -1.765625 1.09375 -1.796875 1.25 -1.796875 Z M 1.25 -1.796875 "/></g></g></g><g fill="#000000" fill-opacity="1"><g transform="translate(18.511354, 4.027835)"><g/></g></g><g fill="#000000" fill-opacity="1"><g transform="translate(20.119598, 4.027835)"><g><path d="M 0.953125 -1.796875 C 1.191406 -1.796875 1.375 -1.738281 1.5 -1.625 C 1.625 -1.507812 1.6875 -1.335938 1.6875 -1.109375 L 1.6875 0 L 1.453125 0 L 1.453125 -0.28125 C 1.398438 -0.1875 1.316406 -0.113281 1.203125 -0.0625 C 1.097656 -0.0078125 0.976562 0.015625 0.84375 0.015625 C 0.644531 0.015625 0.484375 -0.03125 0.359375 -0.125 C 0.242188 -0.21875 0.1875 -0.34375 0.1875 -0.5 C 0.1875 -0.65625 0.238281 -0.773438 0.34375 -0.859375 C 0.457031 -0.953125 0.632812 -1 0.875 -1 L 1.4375 -1 L 1.4375 -1.109375 C 1.4375 -1.265625 1.394531 -1.382812 1.3125 -1.46875 C 1.226562 -1.550781 1.101562 -1.59375 0.9375 -1.59375 C 0.820312 -1.59375 0.710938 -1.570312 0.609375 -1.53125 C 0.503906 -1.488281 0.414062 -1.4375 0.34375 -1.375 L 0.234375 -1.5625 C 0.328125 -1.632812 0.4375 -1.691406 0.5625 -1.734375 C 0.6875 -1.773438 0.816406 -1.796875 0.953125 -1.796875 Z M 0.875 -0.171875 C 1.007812 -0.171875 1.125 -0.203125 1.21875 -0.265625 C 1.320312 -0.328125 1.394531 -0.414062 1.4375 -0.53125 L 1.4375 -0.828125 L 0.875 -0.828125 C 0.570312 -0.828125 0.421875 -0.722656 0.421875 -0.515625 C 0.421875 -0.410156 0.457031 -0.328125 0.53125 -0.265625 C 0.613281 -0.203125 0.726562 -0.171875 0.875 -0.171875 Z M 0.875 -0.171875 "/></g></g></g><g fill="#000000" fill-opacity="1"><g transform="translate(22.838378, 4.027835)"><g><path d="M 1.96875 -2.515625 L 1.96875 0 L 1.734375 0 L 1.734375 -0.359375 C 1.660156 -0.234375 1.5625 -0.140625 1.4375 -0.078125 C 1.320312 -0.015625 1.191406 0.015625 1.046875 0.015625 C 0.878906 0.015625 0.726562 -0.0195312 0.59375 -0.09375 C 0.457031 -0.175781 0.347656 -0.285156 0.265625 -0.421875 C 0.191406 -0.554688 0.15625 -0.710938 0.15625 -0.890625 C 0.15625 -1.066406 0.191406 -1.222656 0.265625 -1.359375 C 0.347656 -1.492188 0.457031 -1.597656 0.59375 -1.671875 C 0.726562 -1.753906 0.878906 -1.796875 1.046875 -1.796875 C 1.191406 -1.796875 1.320312 -1.765625 1.4375 -1.703125 C 1.550781 -1.648438 1.644531 -1.5625 1.71875 -1.4375 L 1.71875 -2.515625 Z M 1.0625 -0.203125 C 1.1875 -0.203125 1.296875 -0.226562 1.390625 -0.28125 C 1.492188 -0.34375 1.570312 -0.425781 1.625 -0.53125 C 1.6875 -0.632812 1.71875 -0.753906 1.71875 -0.890625 C 1.71875 -1.023438 1.6875 -1.144531 1.625 -1.25 C 1.570312 -1.351562 1.492188 -1.4375 1.390625 -1.5 C 1.296875 -1.5625 1.1875 -1.59375 1.0625 -1.59375 C 0.9375 -1.59375 0.820312 -1.5625 0.71875 -1.5 C 0.625 -1.4375 0.546875 -1.351562 0.484375 -1.25 C 0.429688 -1.144531 0.40625 -1.023438 0.40625 -0.890625 C 0.40625 -0.753906 0.429688 -0.632812 0.484375 -0.53125 C 0.546875 -0.425781 0.625 -0.34375 0.71875 -0.28125 C 0.820312 -0.226562 0.9375 -0.203125 1.0625 -0.203125 Z M 1.0625 -0.203125 "/></g></g></g><g fill="#000000" fill-opacity="1"><g transform="translate(25.855109, 4.027835)"><g><path d="M 2.5625 -1.796875 C 2.78125 -1.796875 2.953125 -1.726562 3.078125 -1.59375 C 3.210938 -1.46875 3.28125 -1.28125 3.28125 -1.03125 L 3.28125 0 L 3.03125 0 L 3.03125 -1.015625 C 3.03125 -1.191406 2.984375 -1.328125 2.890625 -1.421875 C 2.804688 -1.523438 2.6875 -1.578125 2.53125 -1.578125 C 2.34375 -1.578125 2.191406 -1.519531 2.078125 -1.40625 C 1.972656 -1.289062 1.921875 -1.132812 1.921875 -0.9375 L 1.921875 0 L 1.6875 0 L 1.6875 -1.015625 C 1.6875 -1.191406 1.640625 -1.328125 1.546875 -1.421875 C 1.460938 -1.523438 1.335938 -1.578125 1.171875 -1.578125 C 0.992188 -1.578125 0.847656 -1.519531 0.734375 -1.40625 C 0.628906 -1.289062 0.578125 -1.132812 0.578125 -0.9375 L 0.578125 0 L 0.328125 0 L 0.328125 -1.78125 L 0.5625 -1.78125 L 0.5625 -1.453125 C 0.625 -1.566406 0.710938 -1.648438 0.828125 -1.703125 C 0.941406 -1.765625 1.070312 -1.796875 1.21875 -1.796875 C 1.363281 -1.796875 1.488281 -1.765625 1.59375 -1.703125 C 1.707031 -1.640625 1.796875 -1.546875 1.859375 -1.421875 C 1.921875 -1.535156 2.015625 -1.625 2.140625 -1.6875 C 2.265625 -1.757812 2.40625 -1.796875 2.5625 -1.796875 Z M 2.5625 -1.796875 "/></g></g></g><g fill="#000000" fill-opacity="1"><g transform="translate(30.168593, 4.027835)"><g><path d="M 0.328125 -1.78125 L 0.578125 -1.78125 L 0.578125 0 L 0.328125 0 Z M 0.453125 -2.171875 C 0.398438 -2.171875 0.359375 -2.1875 0.328125 -2.21875 C 0.296875 -2.257812 0.28125 -2.300781 0.28125 -2.34375 C 0.28125 -2.394531 0.296875 -2.4375 0.328125 -2.46875 C 0.359375 -2.5 0.398438 -2.515625 0.453125 -2.515625 C 0.503906 -2.515625 0.546875 -2.5 0.578125 -2.46875 C 0.609375 -2.4375 0.625 -2.394531 0.625 -2.34375 C 0.625 -2.300781 0.609375 -2.257812 0.578125 -2.21875 C 0.546875 -2.1875 0.503906 -2.171875 0.453125 -2.171875 Z M 0.453125 -2.171875 "/></g></g></g><g fill="#000000" fill-opacity="1"><g transform="translate(31.800538, 4.027835)"><g><path d="M 1.25 -1.796875 C 1.46875 -1.796875 1.644531 -1.726562 1.78125 -1.59375 C 1.914062 -1.46875 1.984375 -1.28125 1.984375 -1.03125 L 1.984375 0 L 1.734375 0 L 1.734375 -1.015625 C 1.734375 -1.191406 1.6875 -1.328125 1.59375 -1.421875 C 1.5 -1.523438 1.367188 -1.578125 1.203125 -1.578125 C 1.003906 -1.578125 0.847656 -1.519531 0.734375 -1.40625 C 0.628906 -1.289062 0.578125 -1.132812 0.578125 -0.9375 L 0.578125 0 L 0.328125 0 L 0.328125 -1.78125 L 0.5625 -1.78125 L 0.5625 -1.453125 C 0.632812 -1.566406 0.726562 -1.648438 0.84375 -1.703125 C 0.957031 -1.765625 1.09375 -1.796875 1.25 -1.796875 Z M 1.25 -1.796875 "/></g></g></g><g fill="#000000" fill-opacity="1"><g transform="translate(34.813881, 4.027835)"><g><path d="M 0.328125 -1.78125 L 0.578125 -1.78125 L 0.578125 0 L 0.328125 0 Z M 0.453125 -2.171875 C 0.398438 -2.171875 0.359375 -2.1875 0.328125 -2.21875 C 0.296875 -2.257812 0.28125 -2.300781 0.28125 -2.34375 C 0.28125 -2.394531 0.296875 -2.4375 0.328125 -2.46875 C 0.359375 -2.5 0.398438 -2.515625 0.453125 -2.515625 C 0.503906 -2.515625 0.546875 -2.5 0.578125 -2.46875 C 0.609375 -2.4375 0.625 -2.394531 0.625 -2.34375 C 0.625 -2.300781 0.609375 -2.257812 0.578125 -2.21875 C 0.546875 -2.1875 0.503906 -2.171875 0.453125 -2.171875 Z M 0.453125 -2.171875 "/></g></g></g><g fill="#000000" fill-opacity="1"><g transform="translate(36.445826, 4.027835)"><g><path d="M 0.8125 0.015625 C 0.664062 0.015625 0.523438 -0.00390625 0.390625 -0.046875 C 0.265625 -0.0859375 0.164062 -0.140625 0.09375 -0.203125 L 0.203125 -0.390625 C 0.273438 -0.335938 0.363281 -0.289062 0.46875 -0.25 C 0.582031 -0.207031 0.703125 -0.1875 0.828125 -0.1875 C 0.992188 -0.1875 1.113281 -0.210938 1.1875 -0.265625 C 1.269531 -0.316406 1.3125 -0.390625 1.3125 -0.484375 C 1.3125 -0.546875 1.289062 -0.59375 1.25 -0.625 C 1.207031 -0.664062 1.148438 -0.695312 1.078125 -0.71875 C 1.015625 -0.738281 0.929688 -0.757812 0.828125 -0.78125 C 0.679688 -0.8125 0.5625 -0.835938 0.46875 -0.859375 C 0.382812 -0.890625 0.3125 -0.9375 0.25 -1 C 0.1875 -1.070312 0.15625 -1.164062 0.15625 -1.28125 C 0.15625 -1.4375 0.21875 -1.5625 0.34375 -1.65625 C 0.46875 -1.75 0.640625 -1.796875 0.859375 -1.796875 C 0.972656 -1.796875 1.085938 -1.78125 1.203125 -1.75 C 1.316406 -1.71875 1.410156 -1.675781 1.484375 -1.625 L 1.390625 -1.4375 C 1.234375 -1.539062 1.054688 -1.59375 0.859375 -1.59375 C 0.703125 -1.59375 0.582031 -1.5625 0.5 -1.5 C 0.425781 -1.445312 0.390625 -1.378906 0.390625 -1.296875 C 0.390625 -1.222656 0.410156 -1.164062 0.453125 -1.125 C 0.503906 -1.09375 0.5625 -1.066406 0.625 -1.046875 C 0.6875 -1.023438 0.773438 -1.003906 0.890625 -0.984375 C 1.035156 -0.953125 1.148438 -0.921875 1.234375 -0.890625 C 1.316406 -0.867188 1.390625 -0.828125 1.453125 -0.765625 C 1.515625 -0.703125 1.546875 -0.609375 1.546875 -0.484375 C 1.546875 -0.328125 1.476562 -0.203125 1.34375 -0.109375 C 1.21875 -0.0234375 1.039062 0.015625 0.8125 0.015625 Z M 0.8125 0.015625 "/></g></g></g><g fill="#000000" fill-opacity="1"><g transform="translate(38.822642, 4.027835)"><g><path d="M 1.28125 -0.109375 C 1.226562 -0.0664062 1.164062 -0.0351562 1.09375 -0.015625 C 1.03125 0.00390625 0.96875 0.015625 0.90625 0.015625 C 0.726562 0.015625 0.59375 -0.0234375 0.5 -0.109375 C 0.414062 -0.203125 0.375 -0.332031 0.375 -0.5 L 0.375 -1.578125 L 0.0625 -1.578125 L 0.0625 -1.78125 L 0.375 -1.78125 L 0.375 -2.171875 L 0.609375 -2.171875 L 0.609375 -1.78125 L 1.15625 -1.78125 L 1.15625 -1.578125 L 0.609375 -1.578125 L 0.609375 -0.515625 C 0.609375 -0.410156 0.632812 -0.328125 0.6875 -0.265625 C 0.75 -0.210938 0.828125 -0.1875 0.921875 -0.1875 C 0.972656 -0.1875 1.019531 -0.191406 1.0625 -0.203125 C 1.113281 -0.222656 1.15625 -0.25 1.1875 -0.28125 Z M 1.28125 -0.109375 "/></g></g></g><g fill="#000000" fill-opacity="1"><g transform="translate(40.91844, 4.027835)"><g><path d="M 0.5625 -1.4375 C 0.625 -1.550781 0.707031 -1.640625 0.8125 -1.703125 C 0.925781 -1.765625 1.066406 -1.796875 1.234375 -1.796875 L 1.234375 -1.5625 L 1.171875 -1.5625 C 0.984375 -1.5625 0.835938 -1.503906 0.734375 -1.390625 C 0.628906 -1.273438 0.578125 -1.113281 0.578125 -0.90625 L 0.578125 0 L 0.328125 0 L 0.328125 -1.78125 L 0.5625 -1.78125 Z M 0.5625 -1.4375 "/></g></g></g><g fill="#000000" fill-opacity="1"><g transform="translate(42.997305, 4.027835)"><g><path d="M 0.953125 -1.796875 C 1.191406 -1.796875 1.375 -1.738281 1.5 -1.625 C 1.625 -1.507812 1.6875 -1.335938 1.6875 -1.109375 L 1.6875 0 L 1.453125 0 L 1.453125 -0.28125 C 1.398438 -0.1875 1.316406 -0.113281 1.203125 -0.0625 C 1.097656 -0.0078125 0.976562 0.015625 0.84375 0.015625 C 0.644531 0.015625 0.484375 -0.03125 0.359375 -0.125 C 0.242188 -0.21875 0.1875 -0.34375 0.1875 -0.5 C 0.1875 -0.65625 0.238281 -0.773438 0.34375 -0.859375 C 0.457031 -0.953125 0.632812 -1 0.875 -1 L 1.4375 -1 L 1.4375 -1.109375 C 1.4375 -1.265625 1.394531 -1.382812 1.3125 -1.46875 C 1.226562 -1.550781 1.101562 -1.59375 0.9375 -1.59375 C 0.820312 -1.59375 0.710938 -1.570312 0.609375 -1.53125 C 0.503906 -1.488281 0.414062 -1.4375 0.34375 -1.375 L 0.234375 -1.5625 C 0.328125 -1.632812 0.4375 -1.691406 0.5625 -1.734375 C 0.6875 -1.773438 0.816406 -1.796875 0.953125 -1.796875 Z M 0.875 -0.171875 C 1.007812 -0.171875 1.125 -0.203125 1.21875 -0.265625 C 1.320312 -0.328125 1.394531 -0.414062 1.4375 -0.53125 L 1.4375 -0.828125 L 0.875 -0.828125 C 0.570312 -0.828125 0.421875 -0.722656 0.421875 -0.515625 C 0.421875 -0.410156 0.457031 -0.328125 0.53125 -0.265625 C 0.613281 -0.203125 0.726562 -0.171875 0.875 -0.171875 Z M 0.875 -0.171875 "/></g></g></g><g fill="#000000" fill-opacity="1"><g transform="translate(45.716084, 4.027835)"><g><path d="M 1.28125 -0.109375 C 1.226562 -0.0664062 1.164062 -0.0351562 1.09375 -0.015625 C 1.03125 0.00390625 0.96875 0.015625 0.90625 0.015625 C 0.726562 0.015625 0.59375 -0.0234375 0.5 -0.109375 C 0.414062 -0.203125 0.375 -0.332031 0.375 -0.5 L 0.375 -1.578125 L 0.0625 -1.578125 L 0.0625 -1.78125 L 0.375 -1.78125 L 0.375 -2.171875 L 0.609375 -2.171875 L 0.609375 -1.78125 L 1.15625 -1.78125 L 1.15625 -1.578125 L 0.609375 -1.578125 L 0.609375 -0.515625 C 0.609375 -0.410156 0.632812 -0.328125 0.6875 -0.265625 C 0.75 -0.210938 0.828125 -0.1875 0.921875 -0.1875 C 0.972656 -0.1875 1.019531 -0.191406 1.0625 -0.203125 C 1.113281 -0.222656 1.15625 -0.25 1.1875 -0.28125 Z M 1.28125 -0.109375 "/></g></g></g><g fill="#000000" fill-opacity="1"><g transform="translate(47.811882, 4.027835)"><g><path d="M 0.328125 -1.78125 L 0.578125 -1.78125 L 0.578125 0 L 0.328125 0 Z M 0.453125 -2.171875 C 0.398438 -2.171875 0.359375 -2.1875 0.328125 -2.21875 C 0.296875 -2.257812 0.28125 -2.300781 0.28125 -2.34375 C 0.28125 -2.394531 0.296875 -2.4375 0.328125 -2.46875 C 0.359375 -2.5 0.398438 -2.515625 0.453125 -2.515625 C 0.503906 -2.515625 0.546875 -2.5 0.578125 -2.46875 C 0.609375 -2.4375 0.625 -2.394531 0.625 -2.34375 C 0.625 -2.300781 0.609375 -2.257812 0.578125 -2.21875 C 0.546875 -2.1875 0.503906 -2.171875 0.453125 -2.171875 Z M 0.453125 -2.171875 "/></g></g></g><g fill="#000000" fill-opacity="1"><g transform="translate(49.443827, 4.027835)"><g><path d="M 1.828125 -1.78125 L 1.046875 0 L 0.796875 0 L 0 -1.78125 L 0.25 -1.78125 L 0.921875 -0.265625 L 1.59375 -1.78125 Z M 1.828125 -1.78125 "/></g></g></g><g fill="#000000" fill-opacity="1"><g transform="translate(52.000089, 4.027835)"><g><path d="M 1.890625 -0.8125 L 0.390625 -0.8125 C 0.410156 -0.632812 0.484375 -0.488281 0.609375 -0.375 C 0.734375 -0.257812 0.894531 -0.203125 1.09375 -0.203125 C 1.207031 -0.203125 1.3125 -0.21875 1.40625 -0.25 C 1.5 -0.289062 1.578125 -0.351562 1.640625 -0.4375 L 1.78125 -0.28125 C 1.695312 -0.175781 1.597656 -0.0976562 1.484375 -0.046875 C 1.367188 -0.00390625 1.238281 0.015625 1.09375 0.015625 C 0.90625 0.015625 0.738281 -0.0195312 0.59375 -0.09375 C 0.457031 -0.175781 0.347656 -0.285156 0.265625 -0.421875 C 0.191406 -0.554688 0.15625 -0.710938 0.15625 -0.890625 C 0.15625 -1.066406 0.191406 -1.222656 0.265625 -1.359375 C 0.347656 -1.492188 0.453125 -1.597656 0.578125 -1.671875 C 0.710938 -1.753906 0.863281 -1.796875 1.03125 -1.796875 C 1.195312 -1.796875 1.34375 -1.753906 1.46875 -1.671875 C 1.601562 -1.597656 1.707031 -1.492188 1.78125 -1.359375 C 1.851562 -1.222656 1.890625 -1.066406 1.890625 -0.890625 Z M 1.03125 -1.59375 C 0.851562 -1.59375 0.707031 -1.535156 0.59375 -1.421875 C 0.476562 -1.316406 0.410156 -1.175781 0.390625 -1 L 1.65625 -1 C 1.644531 -1.175781 1.578125 -1.316406 1.453125 -1.421875 C 1.335938 -1.535156 1.195312 -1.59375 1.03125 -1.59375 Z M 1.03125 -1.59375 "/></g></g></g><g fill="#000000" fill-opacity="1"><g transform="translate(54.766269, 4.027835)"><g/></g></g><g fill="#000000" fill-opacity="1"><g transform="translate(56.374514, 4.027835)"><g><path d="M 0.203125 -1.03125 L 1.09375 -1.03125 L 1.09375 -0.8125 L 0.203125 -0.8125 Z M 0.203125 -1.03125 "/></g></g></g><g fill="#000000" fill-opacity="1"><g transform="translate(58.38905, 4.027835)"><g/></g></g><g fill="#000000" fill-opacity="1"><g transform="translate(59.997295, 4.027835)"><g><path d="M 1.421875 0.015625 C 1.191406 0.015625 0.976562 -0.0351562 0.78125 -0.140625 C 0.59375 -0.242188 0.441406 -0.382812 0.328125 -0.5625 C 0.222656 -0.75 0.171875 -0.957031 0.171875 -1.1875 C 0.171875 -1.414062 0.222656 -1.617188 0.328125 -1.796875 C 0.441406 -1.984375 0.59375 -2.128906 0.78125 -2.234375 C 0.976562 -2.335938 1.191406 -2.390625 1.421875 -2.390625 C 1.660156 -2.390625 1.875 -2.335938 2.0625 -2.234375 C 2.25 -2.128906 2.394531 -1.984375 2.5 -1.796875 C 2.613281 -1.617188 2.671875 -1.414062 2.671875 -1.1875 C 2.671875 -0.957031 2.613281 -0.75 2.5 -0.5625 C 2.394531 -0.382812 2.25 -0.242188 2.0625 -0.140625 C 1.875 -0.0351562 1.660156 0.015625 1.421875 0.015625 Z M 1.421875 -0.203125 C 1.609375 -0.203125 1.773438 -0.242188 1.921875 -0.328125 C 2.078125 -0.410156 2.195312 -0.523438 2.28125 -0.671875 C 2.375 -0.828125 2.421875 -1 2.421875 -1.1875 C 2.421875 -1.375 2.375 -1.539062 2.28125 -1.6875 C 2.195312 -1.84375 2.078125 -1.960938 1.921875 -2.046875 C 1.773438 -2.128906 1.609375 -2.171875 1.421875 -2.171875 C 1.234375 -2.171875 1.0625 -2.128906 0.90625 -2.046875 C 0.757812 -1.960938 0.640625 -1.84375 0.546875 -1.6875 C 0.460938 -1.539062 0.421875 -1.375 0.421875 -1.1875 C 0.421875 -1 0.460938 -0.828125 0.546875 -0.671875 C 0.640625 -0.523438 0.757812 -0.410156 0.90625 -0.328125 C 1.0625 -0.242188 1.234375 -0.203125 1.421875 -0.203125 Z M 1.421875 -0.203125 "/></g></g></g><g fill="#000000" fill-opacity="1"><g transform="translate(63.559135, 4.027835)"><g><path d="M 1.25 -1.796875 C 1.414062 -1.796875 1.566406 -1.753906 1.703125 -1.671875 C 1.835938 -1.597656 1.941406 -1.492188 2.015625 -1.359375 C 2.097656 -1.222656 2.140625 -1.066406 2.140625 -0.890625 C 2.140625 -0.710938 2.097656 -0.550781 2.015625 -0.40625 C 1.941406 -0.269531 1.835938 -0.164062 1.703125 -0.09375 C 1.578125 -0.0195312 1.425781 0.015625 1.25 0.015625 C 1.101562 0.015625 0.972656 -0.0078125 0.859375 -0.0625 C 0.742188 -0.125 0.648438 -0.210938 0.578125 -0.328125 L 0.578125 0.65625 L 0.328125 0.65625 L 0.328125 -1.78125 L 0.5625 -1.78125 L 0.5625 -1.4375 C 0.632812 -1.550781 0.726562 -1.640625 0.84375 -1.703125 C 0.96875 -1.765625 1.101562 -1.796875 1.25 -1.796875 Z M 1.234375 -0.203125 C 1.359375 -0.203125 1.472656 -0.226562 1.578125 -0.28125 C 1.679688 -0.34375 1.757812 -0.425781 1.8125 -0.53125 C 1.875 -0.632812 1.90625 -0.753906 1.90625 -0.890625 C 1.90625 -1.023438 1.875 -1.144531 1.8125 -1.25 C 1.757812 -1.351562 1.679688 -1.4375 1.578125 -1.5 C 1.472656 -1.5625 1.359375 -1.59375 1.234375 -1.59375 C 1.109375 -1.59375 0.992188 -1.5625 0.890625 -1.5 C 0.796875 -1.4375 0.71875 -1.351562 0.65625 -1.25 C 0.601562 -1.144531 0.578125 -1.023438 0.578125 -0.890625 C 0.578125 -0.753906 0.601562 -0.632812 0.65625 -0.53125 C 0.71875 -0.425781 0.796875 -0.34375 0.890625 -0.28125 C 0.992188 -0.226562 1.109375 -0.203125 1.234375 -0.203125 Z M 1.234375 -0.203125 "/></g></g></g><g fill="#000000" fill-opacity="1"><g transform="translate(66.575866, 4.027835)"><g><path d="M 1.28125 -0.109375 C 1.226562 -0.0664062 1.164062 -0.0351562 1.09375 -0.015625 C 1.03125 0.00390625 0.96875 0.015625 0.90625 0.015625 C 0.726562 0.015625 0.59375 -0.0234375 0.5 -0.109375 C 0.414062 -0.203125 0.375 -0.332031 0.375 -0.5 L 0.375 -1.578125 L 0.0625 -1.578125 L 0.0625 -1.78125 L 0.375 -1.78125 L 0.375 -2.171875 L 0.609375 -2.171875 L 0.609375 -1.78125 L 1.15625 -1.78125 L 1.15625 -1.578125 L 0.609375 -1.578125 L 0.609375 -0.515625 C 0.609375 -0.410156 0.632812 -0.328125 0.6875 -0.265625 C 0.75 -0.210938 0.828125 -0.1875 0.921875 -0.1875 C 0.972656 -0.1875 1.019531 -0.191406 1.0625 -0.203125 C 1.113281 -0.222656 1.15625 -0.25 1.1875 -0.28125 Z M 1.28125 -0.109375 "/></g></g></g><g fill="#000000" fill-opacity="1"><g transform="translate(68.671664, 4.027835)"><g><path d="M 0.328125 -1.78125 L 0.578125 -1.78125 L 0.578125 0 L 0.328125 0 Z M 0.453125 -2.171875 C 0.398438 -2.171875 0.359375 -2.1875 0.328125 -2.21875 C 0.296875 -2.257812 0.28125 -2.300781 0.28125 -2.34375 C 0.28125 -2.394531 0.296875 -2.4375 0.328125 -2.46875 C 0.359375 -2.5 0.398438 -2.515625 0.453125 -2.515625 C 0.503906 -2.515625 0.546875 -2.5 0.578125 -2.46875 C 0.609375 -2.4375 0.625 -2.394531 0.625 -2.34375 C 0.625 -2.300781 0.609375 -2.257812 0.578125 -2.21875 C 0.546875 -2.1875 0.503906 -2.171875 0.453125 -2.171875 Z M 0.453125 -2.171875 "/></g></g></g><g fill="#000000" fill-opacity="1"><g transform="translate(70.303609, 4.027835)"><g><path d="M 2.5625 -1.796875 C 2.78125 -1.796875 2.953125 -1.726562 3.078125 -1.59375 C 3.210938 -1.46875 3.28125 -1.28125 3.28125 -1.03125 L 3.28125 0 L 3.03125 0 L 3.03125 -1.015625 C 3.03125 -1.191406 2.984375 -1.328125 2.890625 -1.421875 C 2.804688 -1.523438 2.6875 -1.578125 2.53125 -1.578125 C 2.34375 -1.578125 2.191406 -1.519531 2.078125 -1.40625 C 1.972656 -1.289062 1.921875 -1.132812 1.921875 -0.9375 L 1.921875 0 L 1.6875 0 L 1.6875 -1.015625 C 1.6875 -1.191406 1.640625 -1.328125 1.546875 -1.421875 C 1.460938 -1.523438 1.335938 -1.578125 1.171875 -1.578125 C 0.992188 -1.578125 0.847656 -1.519531 0.734375 -1.40625 C 0.628906 -1.289062 0.578125 -1.132812 0.578125 -0.9375 L 0.578125 0 L 0.328125 0 L 0.328125 -1.78125 L 0.5625 -1.78125 L 0.5625 -1.453125 C 0.625 -1.566406 0.710938 -1.648438 0.828125 -1.703125 C 0.941406 -1.765625 1.070312 -1.796875 1.21875 -1.796875 C 1.363281 -1.796875 1.488281 -1.765625 1.59375 -1.703125 C 1.707031 -1.640625 1.796875 -1.546875 1.859375 -1.421875 C 1.921875 -1.535156 2.015625 -1.625 2.140625 -1.6875 C 2.265625 -1.757812 2.40625 -1.796875 2.5625 -1.796875 Z M 2.5625 -1.796875 "/></g></g></g><g fill="#000000" fill-opacity="1"><g transform="translate(74.617089, 4.027835)"><g><path d="M 0.328125 -1.78125 L 0.578125 -1.78125 L 0.578125 0 L 0.328125 0 Z M 0.453125 -2.171875 C 0.398438 -2.171875 0.359375 -2.1875 0.328125 -2.21875 C 0.296875 -2.257812 0.28125 -2.300781 0.28125 -2.34375 C 0.28125 -2.394531 0.296875 -2.4375 0.328125 -2.46875 C 0.359375 -2.5 0.398438 -2.515625 0.453125 -2.515625 C 0.503906 -2.515625 0.546875 -2.5 0.578125 -2.46875 C 0.609375 -2.4375 0.625 -2.394531 0.625 -2.34375 C 0.625 -2.300781 0.609375 -2.257812 0.578125 -2.21875 C 0.546875 -2.1875 0.503906 -2.171875 0.453125 -2.171875 Z M 0.453125 -2.171875 "/></g></g></g><g fill="#000000" fill-opacity="1"><g transform="translate(76.249042, 4.027835)"><g><path d="M 0.8125 0.015625 C 0.664062 0.015625 0.523438 -0.00390625 0.390625 -0.046875 C 0.265625 -0.0859375 0.164062 -0.140625 0.09375 -0.203125 L 0.203125 -0.390625 C 0.273438 -0.335938 0.363281 -0.289062 0.46875 -0.25 C 0.582031 -0.207031 0.703125 -0.1875 0.828125 -0.1875 C 0.992188 -0.1875 1.113281 -0.210938 1.1875 -0.265625 C 1.269531 -0.316406 1.3125 -0.390625 1.3125 -0.484375 C 1.3125 -0.546875 1.289062 -0.59375 1.25 -0.625 C 1.207031 -0.664062 1.148438 -0.695312 1.078125 -0.71875 C 1.015625 -0.738281 0.929688 -0.757812 0.828125 -0.78125 C 0.679688 -0.8125 0.5625 -0.835938 0.46875 -0.859375 C 0.382812 -0.890625 0.3125 -0.9375 0.25 -1 C 0.1875 -1.070312 0.15625 -1.164062 0.15625 -1.28125 C 0.15625 -1.4375 0.21875 -1.5625 0.34375 -1.65625 C 0.46875 -1.75 0.640625 -1.796875 0.859375 -1.796875 C 0.972656 -1.796875 1.085938 -1.78125 1.203125 -1.75 C 1.316406 -1.71875 1.410156 -1.675781 1.484375 -1.625 L 1.390625 -1.4375 C 1.234375 -1.539062 1.054688 -1.59375 0.859375 -1.59375 C 0.703125 -1.59375 0.582031 -1.5625 0.5 -1.5 C 0.425781 -1.445312 0.390625 -1.378906 0.390625 -1.296875 C 0.390625 -1.222656 0.410156 -1.164062 0.453125 -1.125 C 0.503906 -1.09375 0.5625 -1.066406 0.625 -1.046875 C 0.6875 -1.023438 0.773438 -1.003906 0.890625 -0.984375 C 1.035156 -0.953125 1.148438 -0.921875 1.234375 -0.890625 C 1.316406 -0.867188 1.390625 -0.828125 1.453125 -0.765625 C 1.515625 -0.703125 1.546875 -0.609375 1.546875 -0.484375 C 1.546875 -0.328125 1.476562 -0.203125 1.34375 -0.109375 C 1.21875 -0.0234375 1.039062 0.015625 0.8125 0.015625 Z M 0.8125 0.015625 "/></g></g></g><g fill="#000000" fill-opacity="1"><g transform="translate(78.62585, 4.027835)"><g><path d="M 0.953125 -1.796875 C 1.191406 -1.796875 1.375 -1.738281 1.5 -1.625 C 1.625 -1.507812 1.6875 -1.335938 1.6875 -1.109375 L 1.6875 0 L 1.453125 0 L 1.453125 -0.28125 C 1.398438 -0.1875 1.316406 -0.113281 1.203125 -0.0625 C 1.097656 -0.0078125 0.976562 0.015625 0.84375 0.015625 C 0.644531 0.015625 0.484375 -0.03125 0.359375 -0.125 C 0.242188 -0.21875 0.1875 -0.34375 0.1875 -0.5 C 0.1875 -0.65625 0.238281 -0.773438 0.34375 -0.859375 C 0.457031 -0.953125 0.632812 -1 0.875 -1 L 1.4375 -1 L 1.4375 -1.109375 C 1.4375 -1.265625 1.394531 -1.382812 1.3125 -1.46875 C 1.226562 -1.550781 1.101562 -1.59375 0.9375 -1.59375 C 0.820312 -1.59375 0.710938 -1.570312 0.609375 -1.53125 C 0.503906 -1.488281 0.414062 -1.4375 0.34375 -1.375 L 0.234375 -1.5625 C 0.328125 -1.632812 0.4375 -1.691406 0.5625 -1.734375 C 0.6875 -1.773438 0.816406 -1.796875 0.953125 -1.796875 Z M 0.875 -0.171875 C 1.007812 -0.171875 1.125 -0.203125 1.21875 -0.265625 C 1.320312 -0.328125 1.394531 -0.414062 1.4375 -0.53125 L 1.4375 -0.828125 L 0.875 -0.828125 C 0.570312 -0.828125 0.421875 -0.722656 0.421875 -0.515625 C 0.421875 -0.410156 0.457031 -0.328125 0.53125 -0.265625 C 0.613281 -0.203125 0.726562 -0.171875 0.875 -0.171875 Z M 0.875 -0.171875 "/></g></g></g><g fill="#000000" fill-opacity="1"><g transform="translate(81.34463, 4.027835)"><g><path d="M 1.28125 -0.109375 C 1.226562 -0.0664062 1.164062 -0.0351562 1.09375 -0.015625 C 1.03125 0.00390625 0.96875 0.015625 0.90625 0.015625 C 0.726562 0.015625 0.59375 -0.0234375 0.5 -0.109375 C 0.414062 -0.203125 0.375 -0.332031 0.375 -0.5 L 0.375 -1.578125 L 0.0625 -1.578125 L 0.0625 -1.78125 L 0.375 -1.78125 L 0.375 -2.171875 L 0.609375 -2.171875 L 0.609375 -1.78125 L 1.15625 -1.78125 L 1.15625 -1.578125 L 0.609375 -1.578125 L 0.609375 -0.515625 C 0.609375 -0.410156 0.632812 -0.328125 0.6875 -0.265625 C 0.75 -0.210938 0.828125 -0.1875 0.921875 -0.1875 C 0.972656 -0.1875 1.019531 -0.191406 1.0625 -0.203125 C 1.113281 -0.222656 1.15625 -0.25 1.1875 -0.28125 Z M 1.28125 -0.109375 "/></g></g></g><g fill="#000000" fill-opacity="1"><g transform="translate(83.440427, 4.027835)"><g><path d="M 0.328125 -1.78125 L 0.578125 -1.78125 L 0.578125 0 L 0.328125 0 Z M 0.453125 -2.171875 C 0.398438 -2.171875 0.359375 -2.1875 0.328125 -2.21875 C 0.296875 -2.257812 0.28125 -2.300781 0.28125 -2.34375 C 0.28125 -2.394531 0.296875 -2.4375 0.328125 -2.46875 C 0.359375 -2.5 0.398438 -2.515625 0.453125 -2.515625 C 0.503906 -2.515625 0.546875 -2.5 0.578125 -2.46875 C 0.609375 -2.4375 0.625 -2.394531 0.625 -2.34375 C 0.625 -2.300781 0.609375 -2.257812 0.578125 -2.21875 C 0.546875 -2.1875 0.503906 -2.171875 0.453125 -2.171875 Z M 0.453125 -2.171875 "/></g></g></g><g fill="#000000" fill-opacity="1"><g transform="translate(85.07238, 4.027835)"><g><path d="M 1.0625 0.015625 C 0.894531 0.015625 0.738281 -0.0195312 0.59375 -0.09375 C 0.457031 -0.175781 0.347656 -0.285156 0.265625 -0.421875 C 0.191406 -0.554688 0.15625 -0.710938 0.15625 -0.890625 C 0.15625 -1.066406 0.191406 -1.222656 0.265625 -1.359375 C 0.347656 -1.492188 0.457031 -1.597656 0.59375 -1.671875 C 0.738281 -1.753906 0.894531 -1.796875 1.0625 -1.796875 C 1.238281 -1.796875 1.394531 -1.753906 1.53125 -1.671875 C 1.664062 -1.597656 1.769531 -1.492188 1.84375 -1.359375 C 1.925781 -1.222656 1.96875 -1.066406 1.96875 -0.890625 C 1.96875 -0.710938 1.925781 -0.554688 1.84375 -0.421875 C 1.769531 -0.285156 1.664062 -0.175781 1.53125 -0.09375 C 1.394531 -0.0195312 1.238281 0.015625 1.0625 0.015625 Z M 1.0625 -0.203125 C 1.1875 -0.203125 1.300781 -0.226562 1.40625 -0.28125 C 1.507812 -0.34375 1.585938 -0.425781 1.640625 -0.53125 C 1.691406 -0.632812 1.71875 -0.753906 1.71875 -0.890625 C 1.71875 -1.023438 1.691406 -1.144531 1.640625 -1.25 C 1.585938 -1.351562 1.507812 -1.4375 1.40625 -1.5 C 1.300781 -1.5625 1.1875 -1.59375 1.0625 -1.59375 C 0.9375 -1.59375 0.820312 -1.5625 0.71875 -1.5 C 0.625 -1.4375 0.546875 -1.351562 0.484375 -1.25 C 0.429688 -1.144531 0.40625 -1.023438 0.40625 -0.890625 C 0.40625 -0.753906 0.429688 -0.632812 0.484375 -0.53125 C 0.546875 -0.425781 0.625 -0.34375 0.71875 -0.28125 C 0.820312 -0.226562 0.9375 -0.203125 1.0625 -0.203125 Z M 1.0625 -0.203125 "/></g></g></g><g fill="#000000" fill-opacity="1"><g transform="translate(87.916425, 4.027835)"><g><path d="M 1.25 -1.796875 C 1.46875 -1.796875 1.644531 -1.726562 1.78125 -1.59375 C 1.914062 -1.46875 1.984375 -1.28125 1.984375 -1.03125 L 1.984375 0 L 1.734375 0 L 1.734375 -1.015625 C 1.734375 -1.191406 1.6875 -1.328125 1.59375 -1.421875 C 1.5 -1.523438 1.367188 -1.578125 1.203125 -1.578125 C 1.003906 -1.578125 0.847656 -1.519531 0.734375 -1.40625 C 0.628906 -1.289062 0.578125 -1.132812 0.578125 -0.9375 L 0.578125 0 L 0.328125 0 L 0.328125 -1.78125 L 0.5625 -1.78125 L 0.5625 -1.453125 C 0.632812 -1.566406 0.726562 -1.648438 0.84375 -1.703125 C 0.957031 -1.765625 1.09375 -1.796875 1.25 -1.796875 Z M 1.25 -1.796875 "/></g></g></g><g fill="#000000" fill-opacity="1"><g transform="translate(90.929768, 4.027835)"><g/></g></g><g fill="#000000" fill-opacity="1"><g transform="translate(92.538017, 4.027835)"><g><path d="M 0.203125 -1.03125 L 1.09375 -1.03125 L 1.09375 -0.8125 L 0.203125 -0.8125 Z M 0.203125 -1.03125 "/></g></g></g><g fill="#000000" fill-opacity="1"><g transform="translate(94.552557, 4.027835)"><g/></g></g><g fill="#000000" fill-opacity="1"><g transform="translate(96.160798, 4.027835)"><g><path d="M 1.875 -0.640625 L 0.546875 -0.640625 L 0.265625 0 L 0 0 L 1.09375 -2.375 L 1.34375 -2.375 L 2.421875 0 L 2.15625 0 Z M 1.78125 -0.84375 L 1.21875 -2.109375 L 0.640625 -0.84375 Z M 1.78125 -0.84375 "/></g></g></g><g fill="#000000" fill-opacity="1"><g transform="translate(99.309574, 4.027835)"><g><path d="M 1.28125 -0.109375 C 1.226562 -0.0664062 1.164062 -0.0351562 1.09375 -0.015625 C 1.03125 0.00390625 0.96875 0.015625 0.90625 0.015625 C 0.726562 0.015625 0.59375 -0.0234375 0.5 -0.109375 C 0.414062 -0.203125 0.375 -0.332031 0.375 -0.5 L 0.375 -1.578125 L 0.0625 -1.578125 L 0.0625 -1.78125 L 0.375 -1.78125 L 0.375 -2.171875 L 0.609375 -2.171875 L 0.609375 -1.78125 L 1.15625 -1.78125 L 1.15625 -1.578125 L 0.609375 -1.578125 L 0.609375 -0.515625 C 0.609375 -0.410156 0.632812 -0.328125 0.6875 -0.265625 C 0.75 -0.210938 0.828125 -0.1875 0.921875 -0.1875 C 0.972656 -0.1875 1.019531 -0.191406 1.0625 -0.203125 C 1.113281 -0.222656 1.15625 -0.25 1.1875 -0.28125 Z M 1.28125 -0.109375 "/></g></g></g><g fill="#000000" fill-opacity="1"><g transform="translate(101.405372, 4.027835)"><g><path d="M 1.890625 -0.8125 L 0.390625 -0.8125 C 0.410156 -0.632812 0.484375 -0.488281 0.609375 -0.375 C 0.734375 -0.257812 0.894531 -0.203125 1.09375 -0.203125 C 1.207031 -0.203125 1.3125 -0.21875 1.40625 -0.25 C 1.5 -0.289062 1.578125 -0.351562 1.640625 -0.4375 L 1.78125 -0.28125 C 1.695312 -0.175781 1.597656 -0.0976562 1.484375 -0.046875 C 1.367188 -0.00390625 1.238281 0.015625 1.09375 0.015625 C 0.90625 0.015625 0.738281 -0.0195312 0.59375 -0.09375 C 0.457031 -0.175781 0.347656 -0.285156 0.265625 -0.421875 C 0.191406 -0.554688 0.15625 -0.710938 0.15625 -0.890625 C 0.15625 -1.066406 0.191406 -1.222656 0.265625 -1.359375 C 0.347656 -1.492188 0.453125 -1.597656 0.578125 -1.671875 C 0.710938 -1.753906 0.863281 -1.796875 1.03125 -1.796875 C 1.195312 -1.796875 1.34375 -1.753906 1.46875 -1.671875 C 1.601562 -1.597656 1.707031 -1.492188 1.78125 -1.359375 C 1.851562 -1.222656 1.890625 -1.066406 1.890625 -0.890625 Z M 1.03125 -1.59375 C 0.851562 -1.59375 0.707031 -1.535156 0.59375 -1.421875 C 0.476562 -1.316406 0.410156 -1.175781 0.390625 -1 L 1.65625 -1 C 1.644531 -1.175781 1.578125 -1.316406 1.453125 -1.421875 C 1.335938 -1.535156 1.195312 -1.59375 1.03125 -1.59375 Z M 1.03125 -1.59375 "/></g></g></g><g fill="#000000" fill-opacity="1"><g transform="translate(104.171552, 4.027835)"><g><path d="M 0.328125 -2.515625 L 0.578125 -2.515625 L 0.578125 0 L 0.328125 0 Z M 0.328125 -2.515625 "/></g></g></g><g fill="#000000" fill-opacity="1"><g transform="translate(105.803497, 4.027835)"><g><path d="M 0.328125 -1.78125 L 0.578125 -1.78125 L 0.578125 0 L 0.328125 0 Z M 0.453125 -2.171875 C 0.398438 -2.171875 0.359375 -2.1875 0.328125 -2.21875 C 0.296875 -2.257812 0.28125 -2.300781 0.28125 -2.34375 C 0.28125 -2.394531 0.296875 -2.4375 0.328125 -2.46875 C 0.359375 -2.5 0.398438 -2.515625 0.453125 -2.515625 C 0.503906 -2.515625 0.546875 -2.5 0.578125 -2.46875 C 0.609375 -2.4375 0.625 -2.394531 0.625 -2.34375 C 0.625 -2.300781 0.609375 -2.257812 0.578125 -2.21875 C 0.546875 -2.1875 0.503906 -2.171875 0.453125 -2.171875 Z M 0.453125 -2.171875 "/></g></g></g><g fill="#000000" fill-opacity="1"><g transform="translate(107.435441, 4.027835)"><g><path d="M 1.890625 -0.8125 L 0.390625 -0.8125 C 0.410156 -0.632812 0.484375 -0.488281 0.609375 -0.375 C 0.734375 -0.257812 0.894531 -0.203125 1.09375 -0.203125 C 1.207031 -0.203125 1.3125 -0.21875 1.40625 -0.25 C 1.5 -0.289062 1.578125 -0.351562 1.640625 -0.4375 L 1.78125 -0.28125 C 1.695312 -0.175781 1.597656 -0.0976562 1.484375 -0.046875 C 1.367188 -0.00390625 1.238281 0.015625 1.09375 0.015625 C 0.90625 0.015625 0.738281 -0.0195312 0.59375 -0.09375 C 0.457031 -0.175781 0.347656 -0.285156 0.265625 -0.421875 C 0.191406 -0.554688 0.15625 -0.710938 0.15625 -0.890625 C 0.15625 -1.066406 0.191406 -1.222656 0.265625 -1.359375 C 0.347656 -1.492188 0.453125 -1.597656 0.578125 -1.671875 C 0.710938 -1.753906 0.863281 -1.796875 1.03125 -1.796875 C 1.195312 -1.796875 1.34375 -1.753906 1.46875 -1.671875 C 1.601562 -1.597656 1.707031 -1.492188 1.78125 -1.359375 C 1.851562 -1.222656 1.890625 -1.066406 1.890625 -0.890625 Z M 1.03125 -1.59375 C 0.851562 -1.59375 0.707031 -1.535156 0.59375 -1.421875 C 0.476562 -1.316406 0.410156 -1.175781 0.390625 -1 L 1.65625 -1 C 1.644531 -1.175781 1.578125 -1.316406 1.453125 -1.421875 C 1.335938 -1.535156 1.195312 -1.59375 1.03125 -1.59375 Z M 1.03125 -1.59375 "/></g></g></g><g fill="#000000" fill-opacity="1"><g transform="translate(110.201622, 4.027835)"><g><path d="M 0.5625 -1.4375 C 0.625 -1.550781 0.707031 -1.640625 0.8125 -1.703125 C 0.925781 -1.765625 1.066406 -1.796875 1.234375 -1.796875 L 1.234375 -1.5625 L 1.171875 -1.5625 C 0.984375 -1.5625 0.835938 -1.503906 0.734375 -1.390625 C 0.628906 -1.273438 0.578125 -1.113281 0.578125 -0.90625 L 0.578125 0 L 0.328125 0 L 0.328125 -1.78125 L 0.5625 -1.78125 Z M 0.5625 -1.4375 "/></g></g></g><g fill="#000000" fill-opacity="1"><g transform="translate(112.280482, 4.027835)"><g><path d="M 0.8125 0.015625 C 0.664062 0.015625 0.523438 -0.00390625 0.390625 -0.046875 C 0.265625 -0.0859375 0.164062 -0.140625 0.09375 -0.203125 L 0.203125 -0.390625 C 0.273438 -0.335938 0.363281 -0.289062 0.46875 -0.25 C 0.582031 -0.207031 0.703125 -0.1875 0.828125 -0.1875 C 0.992188 -0.1875 1.113281 -0.210938 1.1875 -0.265625 C 1.269531 -0.316406 1.3125 -0.390625 1.3125 -0.484375 C 1.3125 -0.546875 1.289062 -0.59375 1.25 -0.625 C 1.207031 -0.664062 1.148438 -0.695312 1.078125 -0.71875 C 1.015625 -0.738281 0.929688 -0.757812 0.828125 -0.78125 C 0.679688 -0.8125 0.5625 -0.835938 0.46875 -0.859375 C 0.382812 -0.890625 0.3125 -0.9375 0.25 -1 C 0.1875 -1.070312 0.15625 -1.164062 0.15625 -1.28125 C 0.15625 -1.4375 0.21875 -1.5625 0.34375 -1.65625 C 0.46875 -1.75 0.640625 -1.796875 0.859375 -1.796875 C 0.972656 -1.796875 1.085938 -1.78125 1.203125 -1.75 C 1.316406 -1.71875 1.410156 -1.675781 1.484375 -1.625 L 1.390625 -1.4375 C 1.234375 -1.539062 1.054688 -1.59375 0.859375 -1.59375 C 0.703125 -1.59375 0.582031 -1.5625 0.5 -1.5 C 0.425781 -1.445312 0.390625 -1.378906 0.390625 -1.296875 C 0.390625 -1.222656 0.410156 -1.164062 0.453125 -1.125 C 0.503906 -1.09375 0.5625 -1.066406 0.625 -1.046875 C 0.6875 -1.023438 0.773438 -1.003906 0.890625 -0.984375 C 1.035156 -0.953125 1.148438 -0.921875 1.234375 -0.890625 C 1.316406 -0.867188 1.390625 -0.828125 1.453125 -0.765625 C 1.515625 -0.703125 1.546875 -0.609375 1.546875 -0.484375 C 1.546875 -0.328125 1.476562 -0.203125 1.34375 -0.109375 C 1.21875 -0.0234375 1.039062 0.015625 0.8125 0.015625 Z M 0.8125 0.015625 "/></g></g></g><g fill="#000000" fill-opacity="1"><g transform="translate(114.661389, 4.027835)"><g/></g></g></g></g></svg>