<?xml version="1.0" encoding="UTF-8"?><svg id="a" xmlns="http://www.w3.org/2000/svg" viewBox="0 0 229.1574198 100.4596198" width="229" height="100"><g id="b"><path id="c" d="M228.7560043,89.6345308c-.2573853-.7154503-.6540222-1.3727837-1.1669922-1.934-.5106201-.5507402-1.1032715-1.019268-1.7569885-1.3889999-.3200073-.1820002-.6629944-.3549995-1.0180054-.5190001.1300049-.092.2600098-.184.3900146-.2819996.4922791-.3765697.9262695-.823719,1.2879944-1.3269997.3823853-.5328684.6827393-1.1200628.8909912-1.7419996.2370911-.7356863.3526306-1.5051212.3420105-2.2779999v-.0760012c.0332336-1.7612286-.655426-3.4593964-1.9060059-4.6999998-1.6360168-1.6400003-4.0460205-2.4650004-7.1630249-2.4650004h-9.3999939l-.0130005.011c-1.5304565.0574602-2.7423096,1.313456-2.7449951,2.8449999v21.2900002c.0010986,1.5784245,1.2815552,2.8570957,2.8599854,2.855999h9.6659851c1.3659973.0120773,2.7279663-.1498909,4.053009-.4820004,1.1495361-.2821426,2.2389221-.7689037,3.2160034-1.4370003.8917542-.6250916,1.6177063-1.4581356,2.1149902-2.427.5144043-1.0369415.7710266-2.1827011.7480164-3.3399982v-.0709991c.0152893-.8611927-.1200562-1.7184296-.3999939-2.5330009ZM212.2189865,78.1625307h5.8859863c1.0487976-.073184,2.0939941.1861019,2.9869995.7410002.6087341.4450088.9520264,1.1669641.9129944,1.9200001v.073c.0606995.8451586-.3406372,1.657012-1.0489807,2.1219997-.966217.5572462-2.0731812.8226118-3.1870117.7639999h-5.553009l.0030212-5.6199999ZM223.4379807,91.7625311c.0597839.8497391-.3391113,1.6666374-1.04599,2.1420002-.9994202.5741215-2.1442566.8451309-3.2950134.7800007h-6.8779907v-5.8440018h6.5480042c1.2615662-.0926647,2.5229492.1828098,3.631012.7929993.6862183.4524097,1.0818481,1.2341347,1.0400085,2.0550003l-.0000305.0740013Z" style="stroke-width:0px;"/><path id="d" d="M0,96.8855303v.1819992c.0005493,1.577095,1.2789001,2.8554459,2.8559952,2.8560009v-.0060005c1.5734558.003315,2.8516846-1.2695351,2.8549957-2.8429909.0000076-.0020027.0000076-.0040054.0000076-.0060081v-.1819992h.0059967v-5.2480011h4.5179977c1.4217529.0057087,2.8367081-.1964283,4.1999969-.6000004,1.2627716-.3726501,2.4452133-.9769268,3.4869995-1.7819996,1.0049057-.7941227,1.8197403-1.8026762,2.3850021-2.9519997.6036072-1.2750835.9041061-2.6725035.8779984-4.0830002v-.0710001c.0173569-1.2939415-.2307434-2.5777044-.7289886-3.7719998-.4771347-1.1208901-1.1939163-2.1237078-2.0999985-2.938-.9620438-.8470588-2.0890198-1.4857941-3.3099976-1.876-1.3792572-.4420013-2.8207474-.658782-4.2690048-.6420001H2.9710007l-.0090027.011c-.0360031,0-.0699997-.011-.0999985-.011C1.2841263,72.9197695.0027618,74.1966517.0000076,75.7745269,0,75.7758615,0,75.777196,0,75.7785306v21.2900002M15.3559952,82.3175304c.0344238,1.1005306-.4394913,2.1556845-1.284996,2.8610001-1.0482254.8132048-2.3555145,1.219244-3.6800003,1.1429996h-4.6730042v-8.0839996h4.6729965c1.3100891-.071929,2.6071548.2916307,3.689003,1.0339999.8859253.7209511,1.3626022,1.8300796,1.276001,2.9690003v.0769997Z" style="stroke-width:0px;"/><path id="e" d="M44.5629959,75.6715308c-.9584351-.9074209-2.0990448-1.6004425-3.3460007-2.033-1.4526062-.4994915-2.9811172-.742118-4.5169983-.717h-9.2439957c-1.5773239-.0011057-2.8568954,1.2766724-2.8580017,2.8539972v21.7170026h.0439987c.2053375,1.3960533,1.4029312,2.430645,2.814003,2.4309998v-.0060005c1.4090958.0010147,2.6063309-1.0302868,2.814003-2.4239998h.0479965v-6.5539989h4.7570038l2.0199966-.0809994,3.7200012,7.2999992c.6869125,1.5016823,2.4611206,2.1621819,3.9627991,1.4752712,1.4843826-.6790009,2.1498947-2.4230061,1.4952011-3.918272l-3.3939972-6.6580009c.0169983-.0109997.0339966-.0170002.0500031-.0289993,1.6112442-.9575548,2.836174-2.4492598,3.461998-4.2159996.3432159-.9842329.5124054-2.0207157.5-3.0629997v-.0780001c.0105515-1.1352005-.1930008-2.2622147-.5999985-3.322-.3939819-.9977746-.9812317-1.9078701-1.7280121-2.6779997ZM30.3170013,85.6975306v-7.46h6c1.2640533-.0819788,2.5198746.2550864,3.572998.9590001.8076324.6602268,1.2427673,1.6726737,1.1660004,2.7129998v.0749998c.0497513,1.0378189-.4009323,2.0366077-1.211998,2.6859999-1.0112534.7337389-2.2445297,1.096447-3.4919968,1.0270004h-6.0350037Z" style="stroke-width:0px;"/><path id="f" d="M74.3279953,76.5675309c-1.2659607-1.2786229-2.7721405-2.2944212-4.4319916-2.9890002-1.8038483-.7464041-3.7399292-1.1205601-5.6920013-1.1-3.8070068-.05607-7.4731369,1.4383948-10.1559982,4.1399999-1.256691,1.2720261-2.2517929,2.7780981-2.9290009,4.4330001-.694931,1.7042236-1.0476303,3.5285616-1.038002,5.3689995v.0760002c-.0094757,1.8404236.3432236,3.664732,1.038002,5.3689995.670639,1.6431885,1.6515121,3.141819,2.8889999,4.4139996,1.2670212,1.2784519,2.7746964,2.2933102,4.4360046,2.9860001,3.6540222,1.4691486,7.7356415,1.4626961,11.3849945-.0179996,1.6661224-.7134266,3.1798401-1.739996,4.4589996-3.0240002,1.2578278-1.2701492,2.253418-2.7754135,2.9299927-4.4300003.6968994-1.7051334,1.0506439-3.5309753,1.0410004-5.3730001v-.073c.0096436-1.841053-.3441162-3.6659126-1.0410004-5.3699999-.6699829-1.6425829-1.6513367-3.1400814-2.8899994-4.4099984ZM72.2450027,86.4965303c.0072479,1.1316671-.196228,2.2547951-.6000061,3.3120003-.3777008.9961586-.9398499,1.9121609-1.6569977,2.7000008-.7118073.7693558-1.5734711,1.3849754-2.5319977,1.809-1.0246277.4483185-2.1326599.6742878-3.2510071.6630001-1.1242981.0113811-2.2376556-.2216606-3.2630005-.6830006-.971283-.4335747-1.8468628-1.0555878-2.576004-1.8299999-.7279663-.7852879-1.2955856-1.7051678-1.6709976-2.7080002-.402977-1.0650768-.6063614-2.1952562-.5999985-3.3339996v-.073c-.0063858-1.1315918.197052-2.2545633.5999985-3.3120003.377655-.9964056.9401932-1.9124756,1.6579971-2.6999998.713028-.7689748,1.5761261-1.383625,2.5359955-1.8059998,2.0796051-.8917904,4.4350739-.8856392,6.5099945.0170002.9681854.4355969,1.8419189,1.056231,2.5720215,1.8269992.7266083.7874494,1.294632,1.7075639,1.6730042,2.7100005.4026794,1.065506.6060638,2.1959581.6000061,3.335l.0009918.072999Z" style="stroke-width:0px;"/><path id="g" d="M179.0100021,73.4345307c-1.5034332-.6750066-3.2694244-.0034297-3.9444275,1.5000092-.0011902.0026619-.0023804.0053256-.0035706.0079908l-6.7449951,15.0740001-6.7420044-15.0740001c-.4817505-1.0783501-1.552948-1.7722371-2.7340088-1.771-.1498108.001694-.2992706.0150678-.4470062.04-.1273041.0186783-.2532501.0457371-.3769989.081-.0319977.011-.0670013.018-.1000061.029-.8218994.24898-1.496048.8410948-1.848999,1.624l-6.7610016,15.1140013-6.7589874-15.1170013c-.4817352-1.0783451-1.5529327-1.772231-2.7339935-1.771-.4201202-.0002434-.8354187.0894317-1.2180023.263-1.5075684.6744992-2.1831055,2.4432555-1.5090027,3.951l9.4689941,21.1680007c.4206238.9432392,1.3010559,1.6002464,2.3249969,1.7350006.1468811.0234756.2952728.0361767.4440002.0380001,1.1809082.0007191,2.2518463-.6930027,2.7339935-1.7709999l6.7610016-15.118,6.7610016,15.1169987c.0393219.0756321.0827179.1490726.1300049.2199993.0350037.0650005.0700073.132.1109924.2000008.0686493.1023884.1437988.2002583.2250061.2929993.0431824.0559692.0899506.1090813.1399994.1590004.0895081.0885773.1836395.1723614.2819977.2509995.0540009.0410004.1000061.0820007.1620026.1219997.1126404.0746098.2302551.1414318.352005.2000008.0379944.0209999.072998.0489998.1109924.0669994.0189972.0079994.0379944.0100002.0540009.0179996.1370239.0564575.2780914.1025867.4219971.1380005.0570068.0160007.1109924.0349998.1710052.0459995.1370392.0249691.2757568.0396767.4149933.0440006.0540009,0,.1080017.0170002.1580048.0170002h.0319977c.0410004,0,.0789948-.0060005.1199951-.0079994.1393433-.0074406.2779999-.0244808.4149933-.0510006.0480042-.0090008.1000061-.0189991.1430054-.0300007.35849-.0878124.6975708-.2414131,1-.4529991.0249939-.0170002.0480042-.0349998.072998-.0540009.1338196-.0972805.2580566-.2071114.3710022-.3279991.0144501-.0110836.0281372-.0231094.0410004-.0359993.2198029-.2386742.399765-.5111542.5330048-.8069992l9.4780121-21.1840014c.6710815-1.5061073-.0046844-3.271144-1.5099945-3.9440001Z" style="stroke-width:0px;"/><path id="h" d="M130.9560013,73.0445307c-1.5782013.0011069-2.8569946,1.2808007-2.8569946,2.859l-.0059967,12.5999997c.1381989,1.790226-.4247742,3.5640888-1.5700073,4.9470005-1.1514282,1.1275978-2.7263947,1.7150726-4.3350067,1.6170006-1.6295319.102356-3.22258-.5115643-4.3619995-1.6809998-1.1485596-1.4298496-1.7124329-3.241909-1.5780029-5.0710001l-.0059967-12.4090004c0-1.5776007-1.2789001-2.8564987-2.8565063-2.8564987-1.5775909,0-2.8564911,1.278898-2.8564911,2.8564987v12.5999994c-.0313873,1.7420387.243454,3.4760532.8119965,5.1230011.494339,1.4175415,1.297348,2.7076015,2.3509979,3.7770004,1.0428925,1.0315285,2.3028412,1.8172951,3.6880035,2.2999992,1.5253754.5170918,3.1274872.7713737,4.7380066.7520008,1.624939.0199356,3.2416077-.2342968,4.7819977-.7520008,1.4000244-.4791012,2.6715851-1.2727604,3.7169952-2.3199997,1.0584412-1.09758,1.8666229-2.4113541,2.3690033-3.8509998.5756836-1.6899967.8544769-3.4668999.8240051-5.2519999v-12.3800013c.0016632-1.5773244-1.2756805-2.8573419-2.8529968-2.8589991-.0003357-.0000004-.0006714-.0000007-.0010071-.0000008Z" style="stroke-width:0px;"/><path id="i" d="M199.7560043,78.6355308c1.5778809.0016489,2.8583374-1.2761369,2.8599854-2.8540134v-.0029867h-.006012c.0033264-1.574008-1.269989-2.8526811-2.8439941-2.8559964-.0033264-.000007-.0066528-.0000082-.0099792-.0000035h-13.5c-1.5752106.0027552-2.8505554,1.2807847-2.8500061,2.8559999v21.2900002c-.0005493,1.5767727,1.2772217,2.8554478,2.8540039,2.855999h13.5029907c1.5767822.0011024,2.855896-1.2762318,2.8569946-2.8530045v-.0029945h-.006012c.0027466-1.5751133-1.2718811-2.8542347-2.8469849-2.8569965-.0013428-.0000019-.0026855-.0000038-.0040283-.0000038h-10.6459656v-5.2600002h8.8190002c1.5770569.0295048,2.879425-1.225029,2.9089355-2.8020782.02948-1.5770493-1.2250366-2.8794184-2.8020935-2.9089222-.035614-.0006666-.071228-.0006666-.106842,0h-8.8190002v-4.5999999l10.6390076-.0049992Z" style="stroke-width:0px;"/><path id="j" d="M102.4419937,76.7725308c-1.3134003-1.2347512-2.8575745-2.1981583-4.5440063-2.835-1.8429413-.6910694-3.7978363-1.0351945-5.7659912-1.0150001h-7.4170074l-.0059967.006c-1.5305786.0297868-2.7642212,1.2634234-2.7940063,2.7939999h-.0070038v21.3600001h0c.0103607,1.5610275,1.2729797,2.8240929,2.8339996,2.8349991h7.3880005c1.970871.0196629,3.9278717-.3314381,5.7689972-1.0349998,1.6832275-.6502419,3.2250977-1.6193047,4.5410004-2.8540001,1.2745667-1.2096786,2.2824249-2.6722412,2.9589996-4.2940006.7008362-1.6854706,1.0555267-3.4946737,1.0429993-5.3199997v-.073c.0129395-1.8188915-.3418274-3.6216383-1.0429993-5.3000002-.6813202-1.6113563-1.6880035-3.0646911-2.9569855-4.2689986ZM100.4319992,86.4965303c.0095062,1.1165915-.1941376,2.2247429-.6000061,3.2649994-.3792419.9596481-.9474945,1.8332825-1.6710052,2.5690002-.7434082.73312-1.6316986,1.3029442-2.6080017,1.6730003-1.1042023.4167347-2.276886.6223011-3.4570007.6060009h-4.4680023v-16.3720007h4.4680023c1.1794586-.0149951,2.3509979.1947398,3.4519958.618,1.9722595.7505407,3.5307007,2.3067884,4.2839966,4.2779999.4044495,1.0483198.6080017,2.163393.6000061,3.2869997l.0000153.0760002Z" style="stroke-width:0px;"/></g><g id="k"><g id="l"><path id="m" d="M58.6491235,54.3572645c-3.3081779.007103-5.9957451-2.6689453-6.0028495-5.9771233-.0018244-.8495483.1770845-1.6897659.5248495-2.4648781L72.1711228,3.4632635c1.509264-2.9500489,5.1242504-4.1180367,8.0742989-2.6087736,2.735281,1.3993863,3.971447,4.6389502,2.8637009,7.5047735l-18.9839993,42.4560013c-.9707289,2.1541443-3.1132364,3.5399666-5.4759998,3.5419998Z" style="fill:#00cea3; stroke-width:0px;"/></g><g id="n"><path id="o" d="M89.6251252,54.3572645c-3.3070755.005497-5.9924469-2.6709633-5.997942-5.9780426-.0014114-.8493233.1778698-1.6892319.5259418-2.4639587L103.1531251,3.4632635c1.5092621-2.9500489,5.1242485-4.1180367,8.0742989-2.6087736,2.7352791,1.3993863,3.971447,4.6389502,2.8637009,7.5047735l-18.9920006,42.4560013c-.9680176,2.1555557-3.1110573,3.5422325-5.473999,3.5419998Z" style="fill:#ffa200; stroke-width:0px;"/></g><g id="p"><path id="q" d="M120.6051248,54.3572645c-3.3081818.003788-5.9930687-2.6749535-5.9968567-5.9831352-.0009689-.8475227.1779213-1.6856041.5248566-2.4588661L134.1331246,3.4632635c1.517868-2.9456314,5.1362457-4.1030633,8.0818787-2.5851965,2.7195587,1.4013743,3.9492035,4.6245136,2.8541183,7.4811983l-19,42.4559994c-.9680176,2.1555557-3.1110611,3.5422325-5.473999,3.5419998h.0100021Z" style="fill:#f07; stroke-width:0px;"/></g><g id="r"><path id="s" d="M151.5471261,54.3572645c-3.3081818.0048943-5.9939575-2.6729507-5.9988556-5.9811325-.0012512-.8481979.1776428-1.6869926.5248566-2.4608688L165.0731271,3.4632635c1.4017944-3.0026066,4.9722595-4.3003244,7.9748688-2.8985337,2.9329376,1.3692676,4.2511139,4.8181084,2.9791336,7.7945336l-19,42.4560013c-.972023,2.1557808-3.1172104,3.5418167-5.4820023,3.5419998h.0019989Z" style="fill:#0045ff; stroke-width:0px;"/></g></g></svg>